<?xml version="1.0" encoding="UTF-8" standalone="no"?><svg xmlns="http://www.w3.org/2000/svg" xmlns:xlink="http://www.w3.org/1999/xlink" contentScriptType="application/ecmascript" contentStyleType="text/css" height="1218px" preserveAspectRatio="none" style="width:974px;height:1218px;" version="1.1" viewBox="0 0 974 1218" width="974px" zoomAndPan="magnify"><defs><filter height="300%" id="fjnm47ehmwdr0" width="300%" x="-1" y="-1"><feGaussianBlur result="blurOut" stdDeviation="2.0"/><feColorMatrix in="blurOut" result="blurOut2" type="matrix" values="0 0 0 0 0 0 0 0 0 0 0 0 0 0 0 0 0 0 .4 0"/><feOffset dx="4.0" dy="4.0" in="blurOut2" result="blurOut3"/><feBlend in="SourceGraphic" in2="blurOut3" mode="normal"/></filter></defs><g><!--MD5=[c5dd97bab3b7007faa59890edb8d8fc8]
cluster tetris--><polygon fill="#FFFFFF" filter="url(#fjnm47ehmwdr0)" points="239,200,287,200,294,222.2969,737,222.2969,737,665,239,665,239,200" style="stroke: #000000; stroke-width: 1.5;"/><line style="stroke: #000000; stroke-width: 1.5;" x1="239" x2="294" y1="222.2969" y2="222.2969"/><text fill="#000000" font-family="sans-serif" font-size="14" font-weight="bold" lengthAdjust="spacingAndGlyphs" textLength="42" x="243" y="214.9951">tetris</text><!--MD5=[0d379d28ad28727d743fafbba636325a]
cluster tetris-core--><polygon fill="#FFFFFF" filter="url(#fjnm47ehmwdr0)" points="271,722,361,722,368,744.2969,745,744.2969,745,1206,271,1206,271,722" style="stroke: #000000; stroke-width: 1.5;"/><line style="stroke: #000000; stroke-width: 1.5;" x1="271" x2="368" y1="744.2969" y2="744.2969"/><text fill="#000000" font-family="sans-serif" font-size="14" font-weight="bold" lengthAdjust="spacingAndGlyphs" textLength="84" x="275" y="736.9951">tetris-core</text><!--MD5=[ba4289967459f2b5e85d74e459997e1d]
cluster tetris-ws-client--><polygon fill="#FFFFFF" filter="url(#fjnm47ehmwdr0)" points="30,932,156,932,163,954.2969,231,954.2969,231,1047,30,1047,30,932" style="stroke: #000000; stroke-width: 1.5;"/><line style="stroke: #000000; stroke-width: 1.5;" x1="30" x2="163" y1="954.2969" y2="954.2969"/><text fill="#000000" font-family="sans-serif" font-size="14" font-weight="bold" lengthAdjust="spacingAndGlyphs" textLength="120" x="34" y="946.9951">tetris-ws-client</text><rect fill="#FEFECE" filter="url(#fjnm47ehmwdr0)" height="33.9688" style="stroke: #A80036; stroke-width: 1.5;" width="60" x="450" y="235"/><text fill="#000000" font-family="sans-serif" font-size="12" lengthAdjust="spacingAndGlyphs" textLength="46" x="457" y="248.1387">App.tsx</text><line style="stroke: #A80036; stroke-width: 1.5;" x1="451" x2="509" y1="252.9688" y2="252.9688"/><rect fill="#FEFECE" filter="url(#fjnm47ehmwdr0)" height="33.9688" style="stroke: #A80036; stroke-width: 1.5;" width="71" x="444.5" y="330"/><text fill="#000000" font-family="sans-serif" font-size="12" lengthAdjust="spacingAndGlyphs" textLength="57" x="451.5" y="343.1387">Tetris.tsx</text><line style="stroke: #A80036; stroke-width: 1.5;" x1="445.5" x2="514.5" y1="347.9688" y2="347.9688"/><rect fill="#FEFECE" filter="url(#fjnm47ehmwdr0)" height="33.9688" style="stroke: #A80036; stroke-width: 1.5;" width="151" x="255.5" y="330"/><text fill="#000000" font-family="sans-serif" font-size="12" lengthAdjust="spacingAndGlyphs" textLength="137" x="262.5" y="343.1387">MultiplayerRemote.tsx</text><line style="stroke: #A80036; stroke-width: 1.5;" x1="256.5" x2="405.5" y1="347.9688" y2="347.9688"/><rect fill="#FEFECE" filter="url(#fjnm47ehmwdr0)" height="33.9688" style="stroke: #A80036; stroke-width: 1.5;" width="135" x="550.5" y="330"/><text fill="#000000" font-family="sans-serif" font-size="12" lengthAdjust="spacingAndGlyphs" textLength="121" x="557.5" y="343.1387">MultiplayerLocal.tsx</text><line style="stroke: #A80036; stroke-width: 1.5;" x1="551.5" x2="684.5" y1="347.9688" y2="347.9688"/><rect fill="#FEFECE" filter="url(#fjnm47ehmwdr0)" height="33.9688" style="stroke: #A80036; stroke-width: 1.5;" width="127" x="564.5" y="615"/><text fill="#000000" font-family="sans-serif" font-size="12" lengthAdjust="spacingAndGlyphs" textLength="113" x="571.5" y="628.1387">usePlayerControls</text><line style="stroke: #A80036; stroke-width: 1.5;" x1="565.5" x2="690.5" y1="632.9688" y2="632.9688"/><rect fill="#FEFECE" filter="url(#fjnm47ehmwdr0)" height="33.9688" style="stroke: #A80036; stroke-width: 1.5;" width="125" x="255.5" y="520"/><text fill="#000000" font-family="sans-serif" font-size="12" lengthAdjust="spacingAndGlyphs" textLength="111" x="262.5" y="533.1387">useGameControls</text><line style="stroke: #A80036; stroke-width: 1.5;" x1="256.5" x2="379.5" y1="537.9688" y2="537.9688"/><rect fill="#FEFECE" filter="url(#fjnm47ehmwdr0)" height="33.9688" style="stroke: #A80036; stroke-width: 1.5;" width="72" x="446" y="425"/><text fill="#000000" font-family="sans-serif" font-size="12" lengthAdjust="spacingAndGlyphs" textLength="58" x="453" y="438.1387">useTetris</text><line style="stroke: #A80036; stroke-width: 1.5;" x1="447" x2="517" y1="442.9688" y2="442.9688"/><rect fill="#FEFECE" filter="url(#fjnm47ehmwdr0)" height="33.9688" style="stroke: #A80036; stroke-width: 1.5;" width="152" x="255" y="425"/><text fill="#000000" font-family="sans-serif" font-size="12" lengthAdjust="spacingAndGlyphs" textLength="138" x="262" y="438.1387">useMultiplayerRemote</text><line style="stroke: #A80036; stroke-width: 1.5;" x1="256" x2="406" y1="442.9688" y2="442.9688"/><rect fill="#FEFECE" filter="url(#fjnm47ehmwdr0)" height="33.9688" style="stroke: #A80036; stroke-width: 1.5;" width="104" x="566" y="425"/><text fill="#000000" font-family="sans-serif" font-size="12" lengthAdjust="spacingAndGlyphs" textLength="90" x="573" y="438.1387">useMultiplayer</text><line style="stroke: #A80036; stroke-width: 1.5;" x1="567" x2="669" y1="442.9688" y2="442.9688"/><rect fill="#FEFECE" filter="url(#fjnm47ehmwdr0)" height="33.9688" style="stroke: #A80036; stroke-width: 1.5;" width="135" x="415.5" y="520"/><text fill="#000000" font-family="sans-serif" font-size="12" lengthAdjust="spacingAndGlyphs" textLength="121" x="422.5" y="533.1387">usePlayer1Controls</text><line style="stroke: #A80036; stroke-width: 1.5;" x1="416.5" x2="549.5" y1="537.9688" y2="537.9688"/><rect fill="#FEFECE" filter="url(#fjnm47ehmwdr0)" height="33.9688" style="stroke: #A80036; stroke-width: 1.5;" width="135" x="585.5" y="520"/><text fill="#000000" font-family="sans-serif" font-size="12" lengthAdjust="spacingAndGlyphs" textLength="121" x="592.5" y="533.1387">usePlayer2Controls</text><line style="stroke: #A80036; stroke-width: 1.5;" x1="586.5" x2="719.5" y1="537.9688" y2="537.9688"/><!--MD5=[f1d074ae0db03f497c075808272e6c5c]
class PlayerActions--><rect fill="#FEFECE" filter="url(#fjnm47ehmwdr0)" height="112.0234" id="PlayerActions" style="stroke: #A80036; stroke-width: 1.5;" width="185" x="535.5" y="765"/><ellipse cx="582.25" cy="781" fill="#B4A7E5" rx="11" ry="11" style="stroke: #A80036; stroke-width: 1.0;"/><path d="M583.2031,777.7813 L583.2031,784.2969 L584.9219,784.2969 C585.375,784.2969 585.5156,784.3281 585.6875,784.4531 C585.9219,784.625 586.0313,784.875 586.0313,785.1563 C586.0313,785.7188 585.6719,786 584.9219,786 L579.7813,786 C579.375,786 579.1719,785.9531 579.0156,785.8281 C578.7969,785.6719 578.6563,785.4063 578.6563,785.1563 C578.6563,784.8594 578.8125,784.5781 579.0625,784.4219 C579.2188,784.3125 579.3438,784.2969 579.7813,784.2969 L581.5,784.2969 L581.5,777.7813 L579.7813,777.7813 C579.3594,777.7813 579.1719,777.75 579.0156,777.6406 C578.7969,777.4688 578.6563,777.2188 578.6563,776.9375 C578.6563,776.6563 578.8125,776.3594 579.0625,776.2031 C579.2188,776.1094 579.3438,776.0938 579.7813,776.0938 L584.9219,776.0938 C585.375,776.0938 585.5156,776.125 585.6875,776.2344 C585.9219,776.4063 586.0313,776.6719 586.0313,776.9375 C586.0313,777.2344 585.8906,777.5156 585.625,777.6719 C585.5,777.75 585.3125,777.7813 584.9219,777.7813 Z "/><text fill="#000000" font-family="sans-serif" font-size="12" font-style="italic" lengthAdjust="spacingAndGlyphs" textLength="83" x="602.75" y="785.1543">PlayerActions</text><line style="stroke: #A80036; stroke-width: 1.5;" x1="536.5" x2="719.5" y1="797" y2="797"/><line style="stroke: #A80036; stroke-width: 1.5;" x1="536.5" x2="719.5" y1="805" y2="805"/><text fill="#000000" font-family="sans-serif" font-size="11" lengthAdjust="spacingAndGlyphs" textLength="90" x="541.5" y="819.2104">void rotateLeft()</text><text fill="#000000" font-family="sans-serif" font-size="11" lengthAdjust="spacingAndGlyphs" textLength="97" x="541.5" y="832.0151">void rotateRight()</text><text fill="#000000" font-family="sans-serif" font-size="11" lengthAdjust="spacingAndGlyphs" textLength="94" x="541.5" y="844.8198">void moveRight()</text><text fill="#000000" font-family="sans-serif" font-size="11" lengthAdjust="spacingAndGlyphs" textLength="87" x="541.5" y="857.6245">void moveLeft()</text><text fill="#000000" font-family="sans-serif" font-size="11" lengthAdjust="spacingAndGlyphs" textLength="173" x="541.5" y="870.4292">void drop(hardDrop?: boolean)</text><!--MD5=[b1417ec422275a6d12edd29a4047e123]
class GameActions--><rect fill="#FEFECE" filter="url(#fjnm47ehmwdr0)" height="99.2188" id="GameActions" style="stroke: #A80036; stroke-width: 1.5;" width="186" x="314" y="771.5"/><ellipse cx="362.25" cy="787.5" fill="#B4A7E5" rx="11" ry="11" style="stroke: #A80036; stroke-width: 1.0;"/><path d="M363.2031,784.2813 L363.2031,790.7969 L364.9219,790.7969 C365.375,790.7969 365.5156,790.8281 365.6875,790.9531 C365.9219,791.125 366.0313,791.375 366.0313,791.6563 C366.0313,792.2188 365.6719,792.5 364.9219,792.5 L359.7813,792.5 C359.375,792.5 359.1719,792.4531 359.0156,792.3281 C358.7969,792.1719 358.6563,791.9063 358.6563,791.6563 C358.6563,791.3594 358.8125,791.0781 359.0625,790.9219 C359.2188,790.8125 359.3438,790.7969 359.7813,790.7969 L361.5,790.7969 L361.5,784.2813 L359.7813,784.2813 C359.3594,784.2813 359.1719,784.25 359.0156,784.1406 C358.7969,783.9688 358.6563,783.7188 358.6563,783.4375 C358.6563,783.1563 358.8125,782.8594 359.0625,782.7031 C359.2188,782.6094 359.3438,782.5938 359.7813,782.5938 L364.9219,782.5938 C365.375,782.5938 365.5156,782.625 365.6875,782.7344 C365.9219,782.9063 366.0313,783.1719 366.0313,783.4375 C366.0313,783.7344 365.8906,784.0156 365.625,784.1719 C365.5,784.25 365.3125,784.2813 364.9219,784.2813 Z "/><text fill="#000000" font-family="sans-serif" font-size="12" font-style="italic" lengthAdjust="spacingAndGlyphs" textLength="81" x="382.75" y="791.6543">GameActions</text><line style="stroke: #A80036; stroke-width: 1.5;" x1="315" x2="499" y1="803.5" y2="803.5"/><line style="stroke: #A80036; stroke-width: 1.5;" x1="315" x2="499" y1="811.5" y2="811.5"/><text fill="#000000" font-family="sans-serif" font-size="11" lengthAdjust="spacingAndGlyphs" textLength="174" x="320" y="825.7104">void endGame(player?: Player)</text><text fill="#000000" font-family="sans-serif" font-size="11" lengthAdjust="spacingAndGlyphs" textLength="62" x="320" y="838.5151">void start()</text><text fill="#000000" font-family="sans-serif" font-size="11" lengthAdjust="spacingAndGlyphs" textLength="74" x="320" y="851.3198">void restart()</text><text fill="#000000" font-family="sans-serif" font-size="11" lengthAdjust="spacingAndGlyphs" textLength="105" x="320" y="864.1245">void togglePause()</text><!--MD5=[5a42b2089a99b9a79ff364f6a0883739]
class Multiplayer--><rect fill="#FEFECE" filter="url(#fjnm47ehmwdr0)" height="73.6094" id="Multiplayer" style="stroke: #A80036; stroke-width: 1.5;" width="162" x="547" y="1106"/><ellipse cx="590.35" cy="1122" fill="#ADD1B2" rx="11" ry="11" style="stroke: #A80036; stroke-width: 1.0;"/><path d="M592.6938,1117.6719 L592.8656,1117.75 C593.0844,1117.4375 593.2875,1117.3438 593.5844,1117.3438 C593.8813,1117.3438 594.1625,1117.4844 594.3188,1117.75 C594.4125,1117.9063 594.4281,1118.0313 594.4281,1118.4688 L594.4281,1119.8906 C594.4281,1120.3125 594.3969,1120.5 594.2875,1120.6563 C594.1156,1120.875 593.85,1121.0156 593.5844,1121.0156 C593.3656,1121.0156 593.1313,1120.9063 592.9906,1120.7656 C592.85,1120.6406 592.8188,1120.5156 592.7563,1120.1094 C592.6625,1119.7031 592.4906,1119.4844 592.0063,1119.2031 C591.5375,1118.9531 590.9281,1118.7969 590.35,1118.7969 C588.6156,1118.7969 587.3656,1120.1094 587.3656,1121.8906 L587.3656,1122.9844 C587.3656,1124.6875 588.6625,1125.7813 590.7094,1125.7813 C591.475,1125.7813 592.1625,1125.6563 592.5844,1125.3906 C592.7719,1125.2969 592.7719,1125.2969 593.225,1124.8125 C593.4125,1124.625 593.6156,1124.5469 593.8344,1124.5469 C594.3031,1124.5469 594.6938,1124.9375 594.6938,1125.3906 C594.6938,1125.7813 594.3656,1126.2344 593.7875,1126.6406 C593.0375,1127.1875 591.8813,1127.4844 590.6625,1127.4844 C587.7719,1127.4844 585.6625,1125.5938 585.6625,1123.0156 L585.6625,1121.8906 C585.6625,1119.1719 587.6625,1117.0938 590.2875,1117.0938 C591.1625,1117.0938 591.7563,1117.2344 592.6938,1117.6719 Z "/><text fill="#000000" font-family="sans-serif" font-size="12" lengthAdjust="spacingAndGlyphs" textLength="67" x="610.65" y="1126.1543">Multiplayer</text><line style="stroke: #A80036; stroke-width: 1.5;" x1="548" x2="708" y1="1138" y2="1138"/><ellipse cx="558" cy="1149" fill="none" rx="3" ry="3" style="stroke: #038048; stroke-width: 1.0;"/><text fill="#000000" font-family="sans-serif" font-size="11" lengthAdjust="spacingAndGlyphs" textLength="136" x="567" y="1152.2104">readonly player1Actions</text><ellipse cx="558" cy="1161.8047" fill="none" rx="3" ry="3" style="stroke: #038048; stroke-width: 1.0;"/><text fill="#000000" font-family="sans-serif" font-size="11" lengthAdjust="spacingAndGlyphs" textLength="136" x="567" y="1165.0151">readonly player2Actions</text><line style="stroke: #A80036; stroke-width: 1.5;" x1="548" x2="708" y1="1171.6094" y2="1171.6094"/><!--MD5=[cde2390920797b0c0fc40dc01872ebed]
class Tetris--><rect fill="#FEFECE" filter="url(#fjnm47ehmwdr0)" height="48" id="Tetris" style="stroke: #A80036; stroke-width: 1.5;" width="67" x="524.5" y="975"/><ellipse cx="539.5" cy="991" fill="#ADD1B2" rx="11" ry="11" style="stroke: #A80036; stroke-width: 1.0;"/><path d="M541.8438,986.6719 L542.0156,986.75 C542.2344,986.4375 542.4375,986.3438 542.7344,986.3438 C543.0313,986.3438 543.3125,986.4844 543.4688,986.75 C543.5625,986.9063 543.5781,987.0313 543.5781,987.4688 L543.5781,988.8906 C543.5781,989.3125 543.5469,989.5 543.4375,989.6563 C543.2656,989.875 543,990.0156 542.7344,990.0156 C542.5156,990.0156 542.2813,989.9063 542.1406,989.7656 C542,989.6406 541.9688,989.5156 541.9063,989.1094 C541.8125,988.7031 541.6406,988.4844 541.1563,988.2031 C540.6875,987.9531 540.0781,987.7969 539.5,987.7969 C537.7656,987.7969 536.5156,989.1094 536.5156,990.8906 L536.5156,991.9844 C536.5156,993.6875 537.8125,994.7813 539.8594,994.7813 C540.625,994.7813 541.3125,994.6563 541.7344,994.3906 C541.9219,994.2969 541.9219,994.2969 542.375,993.8125 C542.5625,993.625 542.7656,993.5469 542.9844,993.5469 C543.4531,993.5469 543.8438,993.9375 543.8438,994.3906 C543.8438,994.7813 543.5156,995.2344 542.9375,995.6406 C542.1875,996.1875 541.0313,996.4844 539.8125,996.4844 C536.9219,996.4844 534.8125,994.5938 534.8125,992.0156 L534.8125,990.8906 C534.8125,988.1719 536.8125,986.0938 539.4375,986.0938 C540.3125,986.0938 540.9063,986.2344 541.8438,986.6719 Z "/><text fill="#000000" font-family="sans-serif" font-size="12" lengthAdjust="spacingAndGlyphs" textLength="35" x="553.5" y="995.1543">Tetris</text><line style="stroke: #A80036; stroke-width: 1.5;" x1="525.5" x2="590.5" y1="1007" y2="1007"/><line style="stroke: #A80036; stroke-width: 1.5;" x1="525.5" x2="590.5" y1="1015" y2="1015"/><!--MD5=[74eea16895f8c6560614fbab56fb73df]
class MultiplayerClient--><rect fill="#FEFECE" filter="url(#fjnm47ehmwdr0)" height="48" id="MultiplayerClient" style="stroke: #A80036; stroke-width: 1.5;" width="134" x="54" y="975"/><ellipse cx="69" cy="991" fill="#ADD1B2" rx="11" ry="11" style="stroke: #A80036; stroke-width: 1.0;"/><path d="M71.3438,986.6719 L71.5156,986.75 C71.7344,986.4375 71.9375,986.3438 72.2344,986.3438 C72.5313,986.3438 72.8125,986.4844 72.9688,986.75 C73.0625,986.9063 73.0781,987.0313 73.0781,987.4688 L73.0781,988.8906 C73.0781,989.3125 73.0469,989.5 72.9375,989.6563 C72.7656,989.875 72.5,990.0156 72.2344,990.0156 C72.0156,990.0156 71.7813,989.9063 71.6406,989.7656 C71.5,989.6406 71.4688,989.5156 71.4063,989.1094 C71.3125,988.7031 71.1406,988.4844 70.6563,988.2031 C70.1875,987.9531 69.5781,987.7969 69,987.7969 C67.2656,987.7969 66.0156,989.1094 66.0156,990.8906 L66.0156,991.9844 C66.0156,993.6875 67.3125,994.7813 69.3594,994.7813 C70.125,994.7813 70.8125,994.6563 71.2344,994.3906 C71.4219,994.2969 71.4219,994.2969 71.875,993.8125 C72.0625,993.625 72.2656,993.5469 72.4844,993.5469 C72.9531,993.5469 73.3438,993.9375 73.3438,994.3906 C73.3438,994.7813 73.0156,995.2344 72.4375,995.6406 C71.6875,996.1875 70.5313,996.4844 69.3125,996.4844 C66.4219,996.4844 64.3125,994.5938 64.3125,992.0156 L64.3125,990.8906 C64.3125,988.1719 66.3125,986.0938 68.9375,986.0938 C69.8125,986.0938 70.4063,986.2344 71.3438,986.6719 Z "/><text fill="#000000" font-family="sans-serif" font-size="12" lengthAdjust="spacingAndGlyphs" textLength="102" x="83" y="995.1543">MultiplayerClient</text><line style="stroke: #A80036; stroke-width: 1.5;" x1="55" x2="187" y1="1007" y2="1007"/><line style="stroke: #A80036; stroke-width: 1.5;" x1="55" x2="187" y1="1015" y2="1015"/><!--MD5=[de2effd8dc5bf946a609466312d0f75f]
entity Player--><ellipse cx="480" cy="18" fill="#FEFECE" filter="url(#fjnm47ehmwdr0)" rx="8" ry="8" style="stroke: #A80036; stroke-width: 2.0;"/><path d="M480,26 L480,53 M467,34 L493,34 M480,53 L467,68 M480,53 L493,68 " fill="none" filter="url(#fjnm47ehmwdr0)" style="stroke: #A80036; stroke-width: 2.0;"/><text fill="#000000" font-family="sans-serif" font-size="14" lengthAdjust="spacingAndGlyphs" textLength="41" x="459.5" y="87.9951">Player</text><!--MD5=[c5d78b996ce3c318c3f92e5de26f3389]
link usePlayerControls to PlayerActions--><path d="M628,649.268 C628,673.675 628,721.03 628,759.688 " fill="none" id="usePlayerControls-&gt;PlayerActions" style="stroke: #A80036; stroke-width: 1.0;"/><polygon fill="#A80036" points="628,764.839,632,755.839,628,759.839,624,755.839,628,764.839" style="stroke: #A80036; stroke-width: 1.0;"/><!--MD5=[261a8781e23d6a71728541a6d2fdcd1e]
link useGameControls to GameActions--><path d="M323.17,554.38 C335.951,594.879 369.489,701.146 390.062,766.332 " fill="none" id="useGameControls-&gt;GameActions" style="stroke: #A80036; stroke-width: 1.0;"/><polygon fill="#A80036" points="391.643,771.341,392.7474,761.5543,390.1375,766.573,385.1187,763.9631,391.643,771.341" style="stroke: #A80036; stroke-width: 1.0;"/><!--MD5=[e4007ecc5bca8a94fdd1f5e3f1a75f93]
reverse link Tetris to Multiplayer--><path d="M575.452,1035.153 C585.53,1055.454 598.227,1081.029 608.616,1101.955 " fill="none" id="Tetris&lt;-Multiplayer" style="stroke: #A80036; stroke-width: 1.0;"/><polygon fill="#A80036" points="569.559,1023.283,568.6445,1030.4359,574.8955,1034.0311,575.8099,1026.8782,569.559,1023.283" style="stroke: #A80036; stroke-width: 1.0;"/><text fill="#000000" font-family="sans-serif" font-size="13" lengthAdjust="spacingAndGlyphs" textLength="8" x="563.4015" y="1043.1132">2</text><text fill="#000000" font-family="sans-serif" font-size="13" lengthAdjust="spacingAndGlyphs" textLength="8" x="598.6064" y="1094.8726">1</text><!--MD5=[4bf9afe34fd20346ec0d4a9f0153c366]
reverse link PlayerActions to Tetris--><path d="M598.613,895.887 C587.338,924.236 575.265,954.592 567.24,974.769 " fill="none" id="PlayerActions&lt;-Tetris" style="stroke: #A80036; stroke-width: 1.0; stroke-dasharray: 7.0,7.0;"/><polygon fill="none" points="592.148,893.202,606.044,877.205,605.157,898.376,592.148,893.202" style="stroke: #A80036; stroke-width: 1.0;"/><!--MD5=[6256a64e1cb26d1e654dda5abda5e4c4]
reverse link GameActions to Tetris--><path d="M461.764,885.831 C488.386,916.861 518.737,952.237 538.115,974.823 " fill="none" id="GameActions&lt;-Tetris" style="stroke: #A80036; stroke-width: 1.0; stroke-dasharray: 7.0,7.0;"/><polygon fill="none" points="456.371,890.296,448.661,870.559,466.997,881.18,456.371,890.296" style="stroke: #A80036; stroke-width: 1.0;"/><!--MD5=[a3e293f73722ba474e2c78c7d1a1f850]
reverse link GameActions to Multiplayer--><path d="M423.42,890.434 C438.489,942.176 464.962,1012.659 507,1063 C519.416,1077.868 535.403,1090.882 551.662,1101.802 " fill="none" id="GameActions&lt;-Multiplayer" style="stroke: #A80036; stroke-width: 1.0; stroke-dasharray: 7.0,7.0;"/><polygon fill="none" points="416.605,892.054,418.013,870.911,430.097,888.317,416.605,892.054" style="stroke: #A80036; stroke-width: 1.0;"/><!--MD5=[05e8731ea5aeab7677ab530900d96236]
link Multiplayer to PlayerActions--><path d="M710,1148 C730.449,1148 719.491,1119.553 709,1102 C695.113,1078.766 670.916,1094.587 656,1072 C618.813,1015.687 616.316,936.276 620.18,882.165 " fill="none" id="Multiplayer-&gt;PlayerActions" style="stroke: #A80036; stroke-width: 1.0;"/><polygon fill="#A80036" points="620.573,877.01,615.9006,885.68,620.193,881.9955,623.8775,886.288,620.573,877.01" style="stroke: #A80036; stroke-width: 1.0;"/><!--MD5=[05e8731ea5aeab7677ab530900d96236]
link Multiplayer to PlayerActions--><path d="M710,1160 C823.344,1160 726.385,978.277 666.589,881.325 " fill="none" id="Multiplayer-&gt;PlayerActions-1" style="stroke: #A80036; stroke-width: 1.0;"/><polygon fill="#A80036" points="663.948,877.058,665.2835,886.8159,666.5795,881.3095,672.0859,882.6055,663.948,877.058" style="stroke: #A80036; stroke-width: 1.0;"/><!--MD5=[655f60d7cb58fc6b05d0bd5944f0b145]
reverse link PlayerActions to MultiplayerClient--><path d="M515.333,875.208 C439.867,887.554 206.348,908.382 192,916 C166.886,929.335 146.697,955.468 134.36,974.662 " fill="none" id="PlayerActions&lt;-MultiplayerClient" style="stroke: #A80036; stroke-width: 1.0; stroke-dasharray: 7.0,7.0;"/><polygon fill="none" points="514.284,868.277,535.287,871.083,517.118,881.987,514.284,868.277" style="stroke: #A80036; stroke-width: 1.0;"/><!--MD5=[621d8175356cacc1b758538ac2218162]
reverse link GameActions to MultiplayerClient--><path d="M305.041,878.265 C254.785,896.968 233.196,888.525 192,916 C168.814,931.464 148.706,956.454 135.867,974.788 " fill="none" id="GameActions&lt;-MultiplayerClient" style="stroke: #A80036; stroke-width: 1.0; stroke-dasharray: 7.0,7.0;"/><polygon fill="none" points="302.511,871.737,323.67,870.603,307.836,884.684,302.511,871.737" style="stroke: #A80036; stroke-width: 1.0;"/><!--MD5=[c7e18e2830e72c17eefc5e8d8bf3592e]
link Player to App.tsx--><path d="M480,91.07 C480,133 480,196.82 480,229.73 " fill="none" id="Player-&gt;App.tsx" style="stroke: #A80036; stroke-width: 1.0;"/><polygon fill="#A80036" points="480,234.736,484,225.736,480,229.736,476,225.736,480,234.736" style="stroke: #A80036; stroke-width: 1.0;"/><!--MD5=[1b6106d1defa43473dfecf3b393a7849]
link App.tsx to Tetris.tsx--><path d="M480,269.199 C480,284.669 480,308.062 480,324.965 " fill="none" id="App.tsx-&gt;Tetris.tsx" style="stroke: #A80036; stroke-width: 1.0;"/><polygon fill="#A80036" points="480,329.986,484,320.986,480,324.986,476,320.986,480,329.986" style="stroke: #A80036; stroke-width: 1.0;"/><!--MD5=[ddc810e910b834e9d0a36c24a875f734]
link App.tsx to MultiplayerRemote.tsx--><path d="M454.046,269.199 C428.087,285.402 388.199,310.298 360.922,327.324 " fill="none" id="App.tsx-&gt;MultiplayerRemote.tsx" style="stroke: #A80036; stroke-width: 1.0;"/><polygon fill="#A80036" points="356.656,329.986,366.4085,328.6118,360.897,327.3377,362.1712,321.8262,356.656,329.986" style="stroke: #A80036; stroke-width: 1.0;"/><!--MD5=[4d686634d15e3775f7a8e897bff05d1b]
link App.tsx to MultiplayerLocal.tsx--><path d="M504.038,269.199 C527.982,285.335 564.72,310.094 589.975,327.113 " fill="none" id="App.tsx-&gt;MultiplayerLocal.tsx" style="stroke: #A80036; stroke-width: 1.0;"/><polygon fill="#A80036" points="594.238,329.986,589.0106,321.6389,590.0919,327.1914,584.5393,328.2727,594.238,329.986" style="stroke: #A80036; stroke-width: 1.0;"/><!--MD5=[768d8a89b06a1d56560899d4a3444a58]
link Tetris.tsx to useTetris--><path d="M480.348,364.199 C480.681,379.669 481.184,403.062 481.548,419.965 " fill="none" id="Tetris.tsx-&gt;useTetris" style="stroke: #A80036; stroke-width: 1.0;"/><polygon fill="#A80036" points="481.656,424.986,485.4623,415.9024,481.5489,419.9871,477.4641,416.0738,481.656,424.986" style="stroke: #A80036; stroke-width: 1.0;"/><!--MD5=[ff41a4325c4e0ceb4a3a95a2cca4efec]
link MultiplayerRemote.tsx to useMultiplayerRemote--><path d="M331,364.199 C331,379.669 331,403.062 331,419.965 " fill="none" id="MultiplayerRemote.tsx-&gt;useMultiplayerRemote" style="stroke: #A80036; stroke-width: 1.0;"/><polygon fill="#A80036" points="331,424.986,335,415.986,331,419.986,327,415.986,331,424.986" style="stroke: #A80036; stroke-width: 1.0;"/><!--MD5=[3a1093bf1282c4cac0a04e1049fd261d]
link MultiplayerLocal.tsx to useMultiplayer--><path d="M618,364.199 C618,379.669 618,403.062 618,419.965 " fill="none" id="MultiplayerLocal.tsx-&gt;useMultiplayer" style="stroke: #A80036; stroke-width: 1.0;"/><polygon fill="#A80036" points="618,424.986,622,415.986,618,419.986,614,415.986,618,424.986" style="stroke: #A80036; stroke-width: 1.0;"/><!--MD5=[9c5d86ff9ee38ea5446cd6416d22f4c1]
link useTetris to usePlayer1Controls--><path d="M482.174,459.199 C482.341,474.669 482.592,498.062 482.774,514.965 " fill="none" id="useTetris-&gt;usePlayer1Controls" style="stroke: #A80036; stroke-width: 1.0;"/><polygon fill="#A80036" points="482.828,519.986,486.7326,510.9442,482.7751,514.9863,478.7331,511.0288,482.828,519.986" style="stroke: #A80036; stroke-width: 1.0;"/><!--MD5=[8dc3338faa47b01d34dece726b41292c]
link useTetris to useGameControls--><path d="M453.433,459.199 C424.861,475.402 380.958,500.298 350.934,517.324 " fill="none" id="useTetris-&gt;useGameControls" style="stroke: #A80036; stroke-width: 1.0;"/><polygon fill="#A80036" points="346.239,519.986,356.0408,519.0239,350.5878,517.5187,352.0931,512.0658,346.239,519.986" style="stroke: #A80036; stroke-width: 1.0;"/><!--MD5=[e7ce63dd1d1b76a65a0d785bd775b6f4]
link useTetris to Tetris--><path d="M518.098,452.573 C596.223,473.541 774,522.716 774,536 C774,536 774,536 774,822 C774,912.517 658.592,964.742 596.492,986.292 " fill="none" id="useTetris-&gt;Tetris" style="stroke: #0000FF; stroke-width: 1.0; stroke-dasharray: 7.0,7.0;"/><polygon fill="#0000FF" points="591.75,987.914,601.56,988.7883,596.4813,986.2969,598.9726,981.2182,591.75,987.914" style="stroke: #0000FF; stroke-width: 1.0;"/><text fill="#000000" font-family="sans-serif" font-size="13" lengthAdjust="spacingAndGlyphs" textLength="66" x="775" y="636.5669">«Creates»</text><!--MD5=[97ceb6563564aaed48fa4b1674198c66]
link useMultiplayerRemote to usePlayer1Controls--><path d="M357.476,459.199 C383.958,475.402 424.649,500.298 452.476,517.324 " fill="none" id="useMultiplayerRemote-&gt;usePlayer1Controls" style="stroke: #A80036; stroke-width: 1.0;"/><polygon fill="#A80036" points="456.827,519.986,451.2369,511.8773,452.5618,517.3768,447.0622,518.7017,456.827,519.986" style="stroke: #A80036; stroke-width: 1.0;"/><!--MD5=[546582a67a32d409035db99c82e8832f]
link useMultiplayerRemote to useGameControls--><path d="M328.736,459.199 C326.573,474.669 323.303,498.062 320.94,514.965 " fill="none" id="useMultiplayerRemote-&gt;useGameControls" style="stroke: #A80036; stroke-width: 1.0;"/><polygon fill="#A80036" points="320.238,519.986,325.4466,511.6272,320.9309,515.0342,317.5238,510.5185,320.238,519.986" style="stroke: #A80036; stroke-width: 1.0;"/><!--MD5=[af184484620b37cc5c0ec0d7ef21620d]
link useMultiplayerRemote to MultiplayerClient--><path d="M254.764,452.17 C205.298,462.869 150,486.01 150,536 C150,536 150,536 150,822 C150,874.834 137.12,935.416 128.527,969.953 " fill="none" id="useMultiplayerRemote-&gt;MultiplayerClient" style="stroke: #0000FF; stroke-width: 1.0; stroke-dasharray: 7.0,7.0;"/><polygon fill="#0000FF" points="127.293,974.855,133.3704,967.1048,128.5144,970.0065,125.6127,965.1505,127.293,974.855" style="stroke: #0000FF; stroke-width: 1.0;"/><text fill="#000000" font-family="sans-serif" font-size="13" lengthAdjust="spacingAndGlyphs" textLength="66" x="151" y="636.5669">«Creates»</text><!--MD5=[e4360aff6e2469ce2eade6eea7e43be1]
link useMultiplayer to usePlayer1Controls--><path d="M594.485,459.199 C571.062,475.335 535.122,500.094 510.416,517.113 " fill="none" id="useMultiplayer-&gt;usePlayer1Controls" style="stroke: #A80036; stroke-width: 1.0;"/><polygon fill="#A80036" points="506.246,519.986,515.9265,518.1729,510.3631,517.1489,511.3871,511.5855,506.246,519.986" style="stroke: #A80036; stroke-width: 1.0;"/><!--MD5=[fb8da269a6e689cc3e1bd4decd194c97]
link useMultiplayer to usePlayer2Controls--><path d="M624.097,459.199 C629.918,474.669 638.722,498.062 645.084,514.965 " fill="none" id="useMultiplayer-&gt;usePlayer2Controls" style="stroke: #A80036; stroke-width: 1.0;"/><polygon fill="#A80036" points="646.973,519.986,647.5464,510.1538,645.2117,515.3065,640.0591,512.9718,646.973,519.986" style="stroke: #A80036; stroke-width: 1.0;"/><!--MD5=[3fc91d852b05044d59bde9d0d266e560]
link useMultiplayer to useGameControls--><path d="M566.086,459.093 C512.691,475.646 429.768,501.352 374.689,518.426 " fill="none" id="useMultiplayer-&gt;useGameControls" style="stroke: #A80036; stroke-width: 1.0;"/><polygon fill="#A80036" points="369.78,519.948,379.5607,521.1046,374.5559,518.4679,377.1926,513.4631,369.78,519.948" style="stroke: #A80036; stroke-width: 1.0;"/><!--MD5=[65b54a3119065612b6aafcb4e4fa9f66]
link useMultiplayer to Multiplayer--><path d="M670.102,449.665 C750.342,461.404 895,489.076 895,536 C895,536 895,536 895,1000 C895,1080.404 799.152,1115.076 722.311,1129.954 " fill="none" id="useMultiplayer-&gt;Multiplayer" style="stroke: #0000FF; stroke-width: 1.0; stroke-dasharray: 7.0,7.0;"/><polygon fill="#0000FF" points="717.278,1130.9052,726.8643,1133.164,722.191,1129.9765,725.3785,1125.3032,717.278,1130.9052" style="stroke: #0000FF; stroke-width: 1.0;"/><text fill="#000000" font-family="sans-serif" font-size="13" lengthAdjust="spacingAndGlyphs" textLength="66" x="896" y="694.0669">«Creates»</text><!--MD5=[c4b77e22e9e0cd1355f8afb61a07ae39]
link usePlayer1Controls to usePlayerControls--><path d="M508.257,554.199 C533.415,570.335 572.017,595.094 598.553,612.113 " fill="none" id="usePlayer1Controls-&gt;usePlayerControls" style="stroke: #A80036; stroke-width: 1.0;"/><polygon fill="#A80036" points="603.032,614.986,597.6148,606.7608,598.823,612.2871,593.2966,613.4953,603.032,614.986" style="stroke: #A80036; stroke-width: 1.0;"/><!--MD5=[498e2f0e0a5f2bd4d6600bb042d83ecb]
link usePlayer2Controls to usePlayerControls--><path d="M648.645,554.199 C644.487,569.669 638.198,593.062 633.655,609.965 " fill="none" id="usePlayer2Controls-&gt;usePlayerControls" style="stroke: #A80036; stroke-width: 1.0;"/><polygon fill="#A80036" points="632.305,614.986,638.5051,607.3336,633.6035,610.1576,630.7796,605.256,632.305,614.986" style="stroke: #A80036; stroke-width: 1.0;"/><!--MD5=[710fa00cedc608aee64628dcb2eeb6d0]
link tetris-core to tetris-ws-client--><!--MD5=[fb3cf0f436986d98508347eca10f476e]
@startuml
Allow_mixing

actor Player

package tetris {
   object App.tsx

   object Tetris.tsx
   object MultiplayerRemote.tsx
   object MultiplayerLocal.tsx

   object usePlayerControls
   object useGameControls
   object useTetris
   object useMultiplayerRemote
   object useMultiplayer
   object usePlayer1Controls
   object usePlayer2Controls
}

package tetris-core {
   Interface PlayerActions
   PlayerActions : void rotateLeft()
   PlayerActions : void rotateRight()
   PlayerActions : void moveRight()
   PlayerActions : void moveLeft()
   PlayerActions : void drop(hardDrop?: boolean)

   Interface GameActions
   GameActions : void endGame(player?: Player)
   GameActions : void start()
   GameActions : void restart()
   GameActions : void togglePause()

   Class Multiplayer
   Multiplayer : + readonly player1Actions
   Multiplayer : + readonly player2Actions

   Class Tetris

   usePlayerControls - -> PlayerActions
   useGameControls - -> GameActions

   Tetris "2" *- - "1" Multiplayer
   PlayerActions <|.. Tetris
   GameActions <|.. Tetris
   GameActions <|.. Multiplayer

   Multiplayer::player1Actions - -> PlayerActions
   Multiplayer::player2Actions - -> PlayerActions
}

package tetris-ws-client {
   Class MultiplayerClient
   PlayerActions <|.. MultiplayerClient
   GameActions <|.. MultiplayerClient
}

Player - - -> App.tsx
App.tsx - -> Tetris.tsx
App.tsx - -> MultiplayerRemote.tsx
App.tsx - -> MultiplayerLocal.tsx

Tetris.tsx - -> useTetris
MultiplayerRemote.tsx - -> useMultiplayerRemote
MultiplayerLocal.tsx - -> useMultiplayer


useTetris - -> usePlayer1Controls
useTetris - -> useGameControls
useTetris .[#blue].> Tetris : <<Creates>>


useMultiplayerRemote - -> usePlayer1Controls
useMultiplayerRemote - -> useGameControls
useMultiplayerRemote .[#blue].> MultiplayerClient : <<Creates>>

useMultiplayer - -> usePlayer1Controls
useMultiplayer - -> usePlayer2Controls
useMultiplayer - -> useGameControls
useMultiplayer .[#blue].> Multiplayer : <<Creates>>


usePlayer1Controls - -> usePlayerControls
usePlayer2Controls - -> usePlayerControls

"tetris-core" -[hidden]- "tetris-ws-client"
@enduml

PlantUML version 1.2019.12(Sun Nov 03 10:24:54 UTC 2019)
(GPL source distribution)
Java Runtime: Java(TM) SE Runtime Environment
JVM: Java HotSpot(TM) 64-Bit Server VM
Java Version: 1.7.0_25-b15
Operating System: Linux
Default Encoding: UTF-8
Language: en
Country: US
--></g></svg>