<?xml version="1.0" encoding="UTF-8" standalone="no"?><svg xmlns="http://www.w3.org/2000/svg" xmlns:xlink="http://www.w3.org/1999/xlink" contentScriptType="application/ecmascript" contentStyleType="text/css" height="991px" preserveAspectRatio="none" style="width:673px;height:991px;" version="1.1" viewBox="0 0 673 991" width="673px" zoomAndPan="magnify"><defs><filter height="300%" id="f162x7oof5jg50" width="300%" x="-1" y="-1"><feGaussianBlur result="blurOut" stdDeviation="2.0"/><feColorMatrix in="blurOut" result="blurOut2" type="matrix" values="0 0 0 0 0 0 0 0 0 0 0 0 0 0 0 0 0 0 .4 0"/><feOffset dx="4.0" dy="4.0" in="blurOut2" result="blurOut3"/><feBlend in="SourceGraphic" in2="blurOut3" mode="normal"/></filter></defs><g><!--cluster tetris--><polygon fill="#FFFFFF" filter="url(#f162x7oof5jg50)" points="52,177,100,177,107,199.2969,512,199.2969,512,544,52,544,52,177" style="stroke: #000000; stroke-width: 1.5;"/><line style="stroke: #000000; stroke-width: 1.5;" x1="52" x2="107" y1="199.2969" y2="199.2969"/><text fill="#000000" font-family="sans-serif" font-size="14" font-weight="bold" lengthAdjust="spacingAndGlyphs" textLength="42" x="56" y="191.9951">tetris</text><!--cluster tetris-core--><polygon fill="#FFFFFF" filter="url(#f162x7oof5jg50)" points="22,568,112,568,119,590.2969,461,590.2969,461,979,22,979,22,568" style="stroke: #000000; stroke-width: 1.5;"/><line style="stroke: #000000; stroke-width: 1.5;" x1="22" x2="119" y1="590.2969" y2="590.2969"/><text fill="#000000" font-family="sans-serif" font-size="14" font-weight="bold" lengthAdjust="spacingAndGlyphs" textLength="84" x="26" y="582.9951">tetris-core</text><!--cluster tetris-ws-client--><polygon fill="#FFFFFF" filter="url(#f162x7oof5jg50)" points="485,740,611,740,618,762.2969,651,762.2969,651,839,485,839,485,740" style="stroke: #000000; stroke-width: 1.5;"/><line style="stroke: #000000; stroke-width: 1.5;" x1="485" x2="618" y1="762.2969" y2="762.2969"/><text fill="#000000" font-family="sans-serif" font-size="14" font-weight="bold" lengthAdjust="spacingAndGlyphs" textLength="120" x="489" y="754.9951">tetris-ws-client</text><rect fill="#FEFECE" filter="url(#f162x7oof5jg50)" height="33.9688" style="stroke: #A80036; stroke-width: 1.5;" width="60" x="212" y="212"/><text fill="#000000" font-family="sans-serif" font-size="12" lengthAdjust="spacingAndGlyphs" textLength="46" x="219" y="225.1387">App.tsx</text><line style="stroke: #A80036; stroke-width: 1.5;" x1="213" x2="271" y1="229.9688" y2="229.9688"/><rect fill="#FEFECE" filter="url(#f162x7oof5jg50)" height="33.9688" style="stroke: #A80036; stroke-width: 1.5;" width="71" x="68.5" y="306"/><text fill="#000000" font-family="sans-serif" font-size="12" lengthAdjust="spacingAndGlyphs" textLength="57" x="75.5" y="319.1387">Tetris.tsx</text><line style="stroke: #A80036; stroke-width: 1.5;" x1="69.5" x2="138.5" y1="323.9688" y2="323.9688"/><rect fill="#FEFECE" filter="url(#f162x7oof5jg50)" height="33.9688" style="stroke: #A80036; stroke-width: 1.5;" width="135" x="174.5" y="306"/><text fill="#000000" font-family="sans-serif" font-size="12" lengthAdjust="spacingAndGlyphs" textLength="121" x="181.5" y="319.1387">MultiplayerLocal.tsx</text><line style="stroke: #A80036; stroke-width: 1.5;" x1="175.5" x2="308.5" y1="323.9688" y2="323.9688"/><rect fill="#FEFECE" filter="url(#f162x7oof5jg50)" height="33.9688" style="stroke: #A80036; stroke-width: 1.5;" width="151" x="344.5" y="306"/><text fill="#000000" font-family="sans-serif" font-size="12" lengthAdjust="spacingAndGlyphs" textLength="137" x="351.5" y="319.1387">MultiplayerRemote.tsx</text><line style="stroke: #A80036; stroke-width: 1.5;" x1="345.5" x2="494.5" y1="323.9688" y2="323.9688"/><rect fill="#FEFECE" filter="url(#f162x7oof5jg50)" height="33.9688" style="stroke: #A80036; stroke-width: 1.5;" width="127" x="82.5" y="494"/><text fill="#000000" font-family="sans-serif" font-size="12" lengthAdjust="spacingAndGlyphs" textLength="113" x="89.5" y="507.1387">usePlayerControls</text><line style="stroke: #A80036; stroke-width: 1.5;" x1="83.5" x2="208.5" y1="511.9688" y2="511.9688"/><rect fill="#FEFECE" filter="url(#f162x7oof5jg50)" height="33.9688" style="stroke: #A80036; stroke-width: 1.5;" width="125" x="274.5" y="494"/><text fill="#000000" font-family="sans-serif" font-size="12" lengthAdjust="spacingAndGlyphs" textLength="111" x="281.5" y="507.1387">useGameControls</text><line style="stroke: #A80036; stroke-width: 1.5;" x1="275.5" x2="398.5" y1="511.9688" y2="511.9688"/><rect fill="#FEFECE" filter="url(#f162x7oof5jg50)" height="33.9688" style="stroke: #A80036; stroke-width: 1.5;" width="72" x="83" y="400"/><text fill="#000000" font-family="sans-serif" font-size="12" lengthAdjust="spacingAndGlyphs" textLength="58" x="90" y="413.1387">useTetris</text><line style="stroke: #A80036; stroke-width: 1.5;" x1="84" x2="154" y1="417.9688" y2="417.9688"/><rect fill="#FEFECE" filter="url(#f162x7oof5jg50)" height="33.9688" style="stroke: #A80036; stroke-width: 1.5;" width="104" x="190" y="400"/><text fill="#000000" font-family="sans-serif" font-size="12" lengthAdjust="spacingAndGlyphs" textLength="90" x="197" y="413.1387">useMultiplayer</text><line style="stroke: #A80036; stroke-width: 1.5;" x1="191" x2="293" y1="417.9688" y2="417.9688"/><rect fill="#FEFECE" filter="url(#f162x7oof5jg50)" height="33.9688" style="stroke: #A80036; stroke-width: 1.5;" width="152" x="329" y="400"/><text fill="#000000" font-family="sans-serif" font-size="12" lengthAdjust="spacingAndGlyphs" textLength="138" x="336" y="413.1387">useMultiplayerRemote</text><line style="stroke: #A80036; stroke-width: 1.5;" x1="330" x2="480" y1="417.9688" y2="417.9688"/><!--class PlayerActions--><rect fill="#FEFECE" filter="url(#f162x7oof5jg50)" height="112.0234" id="PlayerActions" style="stroke: #A80036; stroke-width: 1.5;" width="185" x="38.5" y="603"/><ellipse cx="85.25" cy="619" fill="#B4A7E5" rx="11" ry="11" style="stroke: #A80036; stroke-width: 1.0;"/><path d="M86.2031,615.7813 L86.2031,622.2969 L87.9219,622.2969 C88.375,622.2969 88.5156,622.3281 88.6875,622.4531 C88.9219,622.625 89.0313,622.875 89.0313,623.1563 C89.0313,623.7188 88.6719,624 87.9219,624 L82.7813,624 C82.375,624 82.1719,623.9531 82.0156,623.8281 C81.7969,623.6719 81.6563,623.4063 81.6563,623.1563 C81.6563,622.8594 81.8125,622.5781 82.0625,622.4219 C82.2188,622.3125 82.3438,622.2969 82.7813,622.2969 L84.5,622.2969 L84.5,615.7813 L82.7813,615.7813 C82.3594,615.7813 82.1719,615.75 82.0156,615.6406 C81.7969,615.4688 81.6563,615.2188 81.6563,614.9375 C81.6563,614.6563 81.8125,614.3594 82.0625,614.2031 C82.2188,614.1094 82.3438,614.0938 82.7813,614.0938 L87.9219,614.0938 C88.375,614.0938 88.5156,614.125 88.6875,614.2344 C88.9219,614.4063 89.0313,614.6719 89.0313,614.9375 C89.0313,615.2344 88.8906,615.5156 88.625,615.6719 C88.5,615.75 88.3125,615.7813 87.9219,615.7813 Z "/><text fill="#000000" font-family="sans-serif" font-size="12" font-style="italic" lengthAdjust="spacingAndGlyphs" textLength="83" x="105.75" y="623.1543">PlayerActions</text><line style="stroke: #A80036; stroke-width: 1.5;" x1="39.5" x2="222.5" y1="635" y2="635"/><line style="stroke: #A80036; stroke-width: 1.5;" x1="39.5" x2="222.5" y1="643" y2="643"/><text fill="#000000" font-family="sans-serif" font-size="11" lengthAdjust="spacingAndGlyphs" textLength="90" x="44.5" y="657.2104">void rotateLeft()</text><text fill="#000000" font-family="sans-serif" font-size="11" lengthAdjust="spacingAndGlyphs" textLength="97" x="44.5" y="670.0151">void rotateRight()</text><text fill="#000000" font-family="sans-serif" font-size="11" lengthAdjust="spacingAndGlyphs" textLength="94" x="44.5" y="682.8198">void moveRight()</text><text fill="#000000" font-family="sans-serif" font-size="11" lengthAdjust="spacingAndGlyphs" textLength="87" x="44.5" y="695.6245">void moveLeft()</text><text fill="#000000" font-family="sans-serif" font-size="11" lengthAdjust="spacingAndGlyphs" textLength="173" x="44.5" y="708.4292">void drop(hardDrop?: boolean)</text><!--class GameActions--><rect fill="#FEFECE" filter="url(#f162x7oof5jg50)" height="99.2188" id="GameActions" style="stroke: #A80036; stroke-width: 1.5;" width="186" x="259" y="609.5"/><ellipse cx="307.25" cy="625.5" fill="#B4A7E5" rx="11" ry="11" style="stroke: #A80036; stroke-width: 1.0;"/><path d="M308.2031,622.2813 L308.2031,628.7969 L309.9219,628.7969 C310.375,628.7969 310.5156,628.8281 310.6875,628.9531 C310.9219,629.125 311.0313,629.375 311.0313,629.6563 C311.0313,630.2188 310.6719,630.5 309.9219,630.5 L304.7813,630.5 C304.375,630.5 304.1719,630.4531 304.0156,630.3281 C303.7969,630.1719 303.6563,629.9063 303.6563,629.6563 C303.6563,629.3594 303.8125,629.0781 304.0625,628.9219 C304.2188,628.8125 304.3438,628.7969 304.7813,628.7969 L306.5,628.7969 L306.5,622.2813 L304.7813,622.2813 C304.3594,622.2813 304.1719,622.25 304.0156,622.1406 C303.7969,621.9688 303.6563,621.7188 303.6563,621.4375 C303.6563,621.1563 303.8125,620.8594 304.0625,620.7031 C304.2188,620.6094 304.3438,620.5938 304.7813,620.5938 L309.9219,620.5938 C310.375,620.5938 310.5156,620.625 310.6875,620.7344 C310.9219,620.9063 311.0313,621.1719 311.0313,621.4375 C311.0313,621.7344 310.8906,622.0156 310.625,622.1719 C310.5,622.25 310.3125,622.2813 309.9219,622.2813 Z "/><text fill="#000000" font-family="sans-serif" font-size="12" font-style="italic" lengthAdjust="spacingAndGlyphs" textLength="81" x="327.75" y="629.6543">GameActions</text><line style="stroke: #A80036; stroke-width: 1.5;" x1="260" x2="444" y1="641.5" y2="641.5"/><line style="stroke: #A80036; stroke-width: 1.5;" x1="260" x2="444" y1="649.5" y2="649.5"/><text fill="#000000" font-family="sans-serif" font-size="11" lengthAdjust="spacingAndGlyphs" textLength="174" x="265" y="663.7104">void endGame(player?: Player)</text><text fill="#000000" font-family="sans-serif" font-size="11" lengthAdjust="spacingAndGlyphs" textLength="62" x="265" y="676.5151">void start()</text><text fill="#000000" font-family="sans-serif" font-size="11" lengthAdjust="spacingAndGlyphs" textLength="74" x="265" y="689.3198">void restart()</text><text fill="#000000" font-family="sans-serif" font-size="11" lengthAdjust="spacingAndGlyphs" textLength="105" x="265" y="702.1245">void togglePause()</text><!--class Multiplayer--><rect fill="#FEFECE" filter="url(#f162x7oof5jg50)" height="73.6094" id="Multiplayer" style="stroke: #A80036; stroke-width: 1.5;" width="162" x="122" y="887"/><ellipse cx="165.35" cy="903" fill="#ADD1B2" rx="11" ry="11" style="stroke: #A80036; stroke-width: 1.0;"/><path d="M167.6938,898.6719 L167.8656,898.75 C168.0844,898.4375 168.2875,898.3438 168.5844,898.3438 C168.8813,898.3438 169.1625,898.4844 169.3188,898.75 C169.4125,898.9063 169.4281,899.0313 169.4281,899.4688 L169.4281,900.8906 C169.4281,901.3125 169.3969,901.5 169.2875,901.6563 C169.1156,901.875 168.85,902.0156 168.5844,902.0156 C168.3656,902.0156 168.1313,901.9063 167.9906,901.7656 C167.85,901.6406 167.8188,901.5156 167.7563,901.1094 C167.6625,900.7031 167.4906,900.4844 167.0063,900.2031 C166.5375,899.9531 165.9281,899.7969 165.35,899.7969 C163.6156,899.7969 162.3656,901.1094 162.3656,902.8906 L162.3656,903.9844 C162.3656,905.6875 163.6625,906.7813 165.7094,906.7813 C166.475,906.7813 167.1625,906.6563 167.5844,906.3906 C167.7719,906.2969 167.7719,906.2969 168.225,905.8125 C168.4125,905.625 168.6156,905.5469 168.8344,905.5469 C169.3031,905.5469 169.6938,905.9375 169.6938,906.3906 C169.6938,906.7813 169.3656,907.2344 168.7875,907.6406 C168.0375,908.1875 166.8813,908.4844 165.6625,908.4844 C162.7719,908.4844 160.6625,906.5938 160.6625,904.0156 L160.6625,902.8906 C160.6625,900.1719 162.6625,898.0938 165.2875,898.0938 C166.1625,898.0938 166.7563,898.2344 167.6938,898.6719 Z "/><text fill="#000000" font-family="sans-serif" font-size="12" lengthAdjust="spacingAndGlyphs" textLength="67" x="185.65" y="907.1543">Multiplayer</text><line style="stroke: #A80036; stroke-width: 1.5;" x1="123" x2="283" y1="919" y2="919"/><ellipse cx="133" cy="930.9023" fill="none" rx="3" ry="3" style="stroke: #038048; stroke-width: 1.0;"/><text fill="#000000" font-family="sans-serif" font-size="11" lengthAdjust="spacingAndGlyphs" textLength="136" x="142" y="933.2104">readonly player1Actions</text><ellipse cx="133" cy="943.707" fill="none" rx="3" ry="3" style="stroke: #038048; stroke-width: 1.0;"/><text fill="#000000" font-family="sans-serif" font-size="11" lengthAdjust="spacingAndGlyphs" textLength="136" x="142" y="946.0151">readonly player2Actions</text><line style="stroke: #A80036; stroke-width: 1.5;" x1="123" x2="283" y1="952.6094" y2="952.6094"/><!--class Tetris--><rect fill="#FEFECE" filter="url(#f162x7oof5jg50)" height="48" id="Tetris" style="stroke: #A80036; stroke-width: 1.5;" width="67" x="204.5" y="775"/><ellipse cx="219.5" cy="791" fill="#ADD1B2" rx="11" ry="11" style="stroke: #A80036; stroke-width: 1.0;"/><path d="M221.8438,786.6719 L222.0156,786.75 C222.2344,786.4375 222.4375,786.3438 222.7344,786.3438 C223.0313,786.3438 223.3125,786.4844 223.4688,786.75 C223.5625,786.9063 223.5781,787.0313 223.5781,787.4688 L223.5781,788.8906 C223.5781,789.3125 223.5469,789.5 223.4375,789.6563 C223.2656,789.875 223,790.0156 222.7344,790.0156 C222.5156,790.0156 222.2813,789.9063 222.1406,789.7656 C222,789.6406 221.9688,789.5156 221.9063,789.1094 C221.8125,788.7031 221.6406,788.4844 221.1563,788.2031 C220.6875,787.9531 220.0781,787.7969 219.5,787.7969 C217.7656,787.7969 216.5156,789.1094 216.5156,790.8906 L216.5156,791.9844 C216.5156,793.6875 217.8125,794.7813 219.8594,794.7813 C220.625,794.7813 221.3125,794.6563 221.7344,794.3906 C221.9219,794.2969 221.9219,794.2969 222.375,793.8125 C222.5625,793.625 222.7656,793.5469 222.9844,793.5469 C223.4531,793.5469 223.8438,793.9375 223.8438,794.3906 C223.8438,794.7813 223.5156,795.2344 222.9375,795.6406 C222.1875,796.1875 221.0313,796.4844 219.8125,796.4844 C216.9219,796.4844 214.8125,794.5938 214.8125,792.0156 L214.8125,790.8906 C214.8125,788.1719 216.8125,786.0938 219.4375,786.0938 C220.3125,786.0938 220.9063,786.2344 221.8438,786.6719 Z "/><text fill="#000000" font-family="sans-serif" font-size="12" lengthAdjust="spacingAndGlyphs" textLength="35" x="233.5" y="795.1543">Tetris</text><line style="stroke: #A80036; stroke-width: 1.5;" x1="205.5" x2="270.5" y1="807" y2="807"/><line style="stroke: #A80036; stroke-width: 1.5;" x1="205.5" x2="270.5" y1="815" y2="815"/><!--class MultiplayerClient--><rect fill="#FEFECE" filter="url(#f162x7oof5jg50)" height="48" id="MultiplayerClient" style="stroke: #A80036; stroke-width: 1.5;" width="134" x="501" y="775"/><ellipse cx="516" cy="791" fill="#ADD1B2" rx="11" ry="11" style="stroke: #A80036; stroke-width: 1.0;"/><path d="M518.3438,786.6719 L518.5156,786.75 C518.7344,786.4375 518.9375,786.3438 519.2344,786.3438 C519.5313,786.3438 519.8125,786.4844 519.9688,786.75 C520.0625,786.9063 520.0781,787.0313 520.0781,787.4688 L520.0781,788.8906 C520.0781,789.3125 520.0469,789.5 519.9375,789.6563 C519.7656,789.875 519.5,790.0156 519.2344,790.0156 C519.0156,790.0156 518.7813,789.9063 518.6406,789.7656 C518.5,789.6406 518.4688,789.5156 518.4063,789.1094 C518.3125,788.7031 518.1406,788.4844 517.6563,788.2031 C517.1875,787.9531 516.5781,787.7969 516,787.7969 C514.2656,787.7969 513.0156,789.1094 513.0156,790.8906 L513.0156,791.9844 C513.0156,793.6875 514.3125,794.7813 516.3594,794.7813 C517.125,794.7813 517.8125,794.6563 518.2344,794.3906 C518.4219,794.2969 518.4219,794.2969 518.875,793.8125 C519.0625,793.625 519.2656,793.5469 519.4844,793.5469 C519.9531,793.5469 520.3438,793.9375 520.3438,794.3906 C520.3438,794.7813 520.0156,795.2344 519.4375,795.6406 C518.6875,796.1875 517.5313,796.4844 516.3125,796.4844 C513.4219,796.4844 511.3125,794.5938 511.3125,792.0156 L511.3125,790.8906 C511.3125,788.1719 513.3125,786.0938 515.9375,786.0938 C516.8125,786.0938 517.4063,786.2344 518.3438,786.6719 Z "/><text fill="#000000" font-family="sans-serif" font-size="12" lengthAdjust="spacingAndGlyphs" textLength="102" x="530" y="795.1543">MultiplayerClient</text><line style="stroke: #A80036; stroke-width: 1.5;" x1="502" x2="634" y1="807" y2="807"/><line style="stroke: #A80036; stroke-width: 1.5;" x1="502" x2="634" y1="815" y2="815"/><!--entity Player--><ellipse cx="242" cy="18" fill="#FEFECE" filter="url(#f162x7oof5jg50)" rx="8" ry="8" style="stroke: #A80036; stroke-width: 2.0;"/><path d="M242,26 L242,53 M229,34 L255,34 M242,53 L229,68 M242,53 L255,68 " fill="none" filter="url(#f162x7oof5jg50)" style="stroke: #A80036; stroke-width: 2.0;"/><text fill="#000000" font-family="sans-serif" font-size="14" lengthAdjust="spacingAndGlyphs" textLength="41" x="221.5" y="87.9951">Player</text><!--link usePlayerControls to PlayerActions--><path d="M144.337,528.182 C142.607,545.026 139.791,572.433 137.192,597.733 " fill="none" id="usePlayerControls-PlayerActions" style="stroke: #A80036; stroke-width: 1.0;"/><polygon fill="#A80036" points="136.675,602.761,141.5721,594.2159,137.185,597.7871,133.6138,593.4,136.675,602.761" style="stroke: #A80036; stroke-width: 1.0;"/><!--link useGameControls to GameActions--><path d="M338.663,528.182 C340.544,546.495 343.708,577.29 346.482,604.292 " fill="none" id="useGameControls-GameActions" style="stroke: #A80036; stroke-width: 1.0;"/><polygon fill="#A80036" points="346.995,609.286,350.0535,599.9241,346.4836,604.3122,342.0955,600.7423,346.995,609.286" style="stroke: #A80036; stroke-width: 1.0;"/><!--link PlayerActions to Tetris--><path d="M186.476,731.548 C198.592,747.175 210.573,762.627 219.928,774.693 " fill="none" id="PlayerActions-Tetris" style="stroke: #A80036; stroke-width: 1.0;"/><polygon fill="none" points="180.628,735.43,173.904,715.335,191.691,726.851,180.628,735.43" style="stroke: #A80036; stroke-width: 1.0;"/><!--link GameActions to Tetris--><path d="M298.873,724.312 C283.931,742.399 268.633,760.918 257.11,774.867 " fill="none" id="GameActions-Tetris" style="stroke: #A80036; stroke-width: 1.0;"/><polygon fill="none" points="293.673,719.615,311.808,708.654,304.467,728.531,293.673,719.615" style="stroke: #A80036; stroke-width: 1.0;"/><!--link GameActions to Multiplayer--><path d="M338.225,728.297 C328.524,765.554 312.911,811.233 289,847 C280.302,860.011 268.783,872.134 257.011,882.678 " fill="none" id="GameActions-Multiplayer" style="stroke: #A80036; stroke-width: 1.0;"/><polygon fill="none" points="331.426,726.633,342.96,708.857,345.028,729.945,331.426,726.633" style="stroke: #A80036; stroke-width: 1.0;"/><!--link Tetris to Multiplayer--><path d="M227.7,835.904 C223.498,850.55 218.625,867.535 214.324,882.528 " fill="none" id="Tetris-Multiplayer" style="stroke: #A80036; stroke-width: 1.0;"/><polygon fill="#A80036" points="231.334,823.234,225.8347,827.8985,228.0253,834.7688,233.5246,830.1043,231.334,823.234" style="stroke: #A80036; stroke-width: 1.0;"/><text fill="#000000" font-family="sans-serif" font-size="13" lengthAdjust="spacingAndGlyphs" textLength="8" x="220.7342" y="843.0522">2</text><text fill="#000000" font-family="sans-serif" font-size="13" lengthAdjust="spacingAndGlyphs" textLength="8" x="206.8847" y="875.8655">1</text><!--link Multiplayer to PlayerActions--><path d="M121,929 C100.5507,929 117.086,902.85 122,883 C126.299,865.636 135.89,864.41 140,847 C149.787,805.543 147.194,757.524 142.333,720.527 " fill="none" id="Multiplayer-PlayerActions" style="stroke: #A80036; stroke-width: 1.0;"/><polygon fill="#A80036" points="141.6,715.151,138.8503,724.6082,142.2743,720.1053,146.7772,723.5294,141.6,715.151" style="stroke: #A80036; stroke-width: 1.0;"/><!--link Multiplayer to PlayerActions--><path d="M121,941 C33.2926,941 73.624,802.585 105.4716,720.046 " fill="none" id="Multiplayer-PlayerActions-1" style="stroke: #A80036; stroke-width: 1.0;"/><polygon fill="#A80036" points="107.364,715.181,100.373,722.1183,105.5511,719.8408,107.8286,725.0189,107.364,715.181" style="stroke: #A80036; stroke-width: 1.0;"/><!--link PlayerActions to MultiplayerClient--><path d="M243.107,714.397 C339.635,736.659 373.399,703.464 461,732 C489.639,741.329 518.494,759.779 539.011,774.806 " fill="none" id="PlayerActions-MultiplayerClient" style="stroke: #A80036; stroke-width: 1.0;"/><polygon fill="none" points="241.247,721.146,223.631,709.37,244.745,707.59,241.247,721.146" style="stroke: #A80036; stroke-width: 1.0;"/><!--link GameActions to MultiplayerClient--><path d="M445.39,719.666 C475.943,739.186 508.085,759.721 531.791,774.867 " fill="none" id="GameActions-MultiplayerClient" style="stroke: #A80036; stroke-width: 1.0;"/><polygon fill="none" points="441.239,725.32,428.154,708.654,448.776,713.523,441.239,725.32" style="stroke: #A80036; stroke-width: 1.0;"/><!--link Player to App.tsx--><path d="M242,91.222 C242,127.259 242,178.413 242,206.852 " fill="none" id="Player-App.tsx" style="stroke: #A80036; stroke-width: 1.0;"/><polygon fill="#A80036" points="242,211.89,246,202.89,242,206.89,238,202.89,242,211.89" style="stroke: #A80036; stroke-width: 1.0;"/><!--link App.tsx to Tetris.tsx--><path d="M217.962,246.025 C194.164,261.89 157.728,286.181 132.489,303.008 " fill="none" id="App.tsx-Tetris.tsx" style="stroke: #A80036; stroke-width: 1.0;"/><polygon fill="#A80036" points="128.225,305.85,137.9324,304.1867,132.3855,303.0768,133.4953,297.5299,128.225,305.85" style="stroke: #A80036; stroke-width: 1.0;"/><!--link App.tsx to MultiplayerLocal.tsx--><path d="M242,246.025 C242,261.104 242,283.793 242,300.451 " fill="none" id="App.tsx-MultiplayerLocal.tsx" style="stroke: #A80036; stroke-width: 1.0;"/><polygon fill="#A80036" points="242,305.85,246,296.85,242,300.85,238,296.85,242,305.85" style="stroke: #A80036; stroke-width: 1.0;"/><!--link App.tsx to MultiplayerRemote.tsx--><path d="M272.195,245.607 C303.109,261.585 351.157,286.418 384.023,303.405 " fill="none" id="App.tsx-MultiplayerRemote.tsx" style="stroke: #A80036; stroke-width: 1.0;"/><polygon fill="#A80036" points="388.758,305.852,382.5996,298.166,384.3163,303.5561,378.9262,305.2728,388.758,305.852" style="stroke: #A80036; stroke-width: 1.0;"/><!--link Tetris.tsx to useTetris--><path d="M106.613,340.025 C109.093,355.235 112.835,378.188 115.557,394.885 " fill="none" id="Tetris.tsx-useTetris" style="stroke: #A80036; stroke-width: 1.0;"/><polygon fill="#A80036" points="116.367,399.85,118.8643,390.323,115.5612,394.9154,110.9689,391.6123,116.367,399.85" style="stroke: #A80036; stroke-width: 1.0;"/><!--link MultiplayerLocal.tsx to useMultiplayer--><path d="M242,340.025 C242,355.104 242,377.793 242,394.451 " fill="none" id="MultiplayerLocal.tsx-useMultiplayer" style="stroke: #A80036; stroke-width: 1.0;"/><polygon fill="#A80036" points="242,399.85,246,390.85,242,394.85,238,390.85,242,399.85" style="stroke: #A80036; stroke-width: 1.0;"/><!--link MultiplayerRemote.tsx to useMultiplayerRemote--><path d="M417.387,340.025 C414.907,355.235 411.165,378.188 408.443,394.885 " fill="none" id="MultiplayerRemote.tsx-useMultiplayerRemote" style="stroke: #A80036; stroke-width: 1.0;"/><polygon fill="#A80036" points="407.633,399.85,413.0311,391.6123,408.4388,394.9154,405.1357,390.323,407.633,399.85" style="stroke: #A80036; stroke-width: 1.0;"/><!--link useTetris to usePlayerControls--><path d="M123.703,434.025 C128.167,449.235 134.903,472.188 139.803,488.885 " fill="none" id="useTetris-usePlayerControls" style="stroke: #A80036; stroke-width: 1.0;"/><polygon fill="#A80036" points="141.26,493.85,142.5624,484.0876,139.8513,489.0525,134.8864,486.3415,141.26,493.85" style="stroke: #A80036; stroke-width: 1.0;"/><!--link useTetris to useGameControls--><path d="M155.488,433.399 C193.692,449.521 253.646,474.823 294.093,491.892 " fill="none" id="useTetris-useGameControls" style="stroke: #A80036; stroke-width: 1.0;"/><polygon fill="#A80036" points="298.926,493.932,292.1902,486.7467,294.3196,491.9874,289.0789,494.1169,298.926,493.932" style="stroke: #A80036; stroke-width: 1.0;"/><!--link useMultiplayer to usePlayerControls--><path d="M225.278,434.025 C208.997,449.628 184.211,473.381 166.695,490.167 " fill="none" id="useMultiplayer-usePlayerControls" style="stroke: #A80036; stroke-width: 1.0;"/><polygon fill="#A80036" points="162.852,493.85,172.118,490.5122,166.4624,490.391,166.5836,484.7354,162.852,493.85" style="stroke: #A80036; stroke-width: 1.0;"/><!--link useMultiplayer to useGameControls--><path d="M258.548,434.025 C274.659,449.628 299.187,473.381 316.52,490.167 " fill="none" id="useMultiplayer-useGameControls" style="stroke: #A80036; stroke-width: 1.0;"/><polygon fill="#A80036" points="320.323,493.85,316.6394,484.7159,316.7308,490.3721,311.0747,490.4635,320.323,493.85" style="stroke: #A80036; stroke-width: 1.0;"/><!--link useMultiplayerRemote to usePlayerControls--><path d="M359.886,434.025 C314.207,450.251 243.717,475.29 196.271,492.143 " fill="none" id="useMultiplayerRemote-usePlayerControls" style="stroke: #A80036; stroke-width: 1.0;"/><polygon fill="#A80036" points="191.466,493.85,201.2858,494.6054,196.1774,492.1757,198.607,487.0673,191.466,493.85" style="stroke: #A80036; stroke-width: 1.0;"/><!--link useMultiplayerRemote to useGameControls--><path d="M393.155,434.025 C381.72,449.497 364.361,472.982 351.973,489.742 " fill="none" id="useMultiplayerRemote-useGameControls" style="stroke: #A80036; stroke-width: 1.0;"/><polygon fill="#A80036" points="348.937,493.85,357.5033,488.9902,351.909,489.8292,351.07,484.2349,348.937,493.85" style="stroke: #A80036; stroke-width: 1.0;"/><!--
@startuml
Allow_mixing
actor Player

package tetris {
   object App.tsx
   object Tetris.tsx
   object MultiplayerLocal.tsx
   object MultiplayerRemote.tsx

   object usePlayerControls
   object useGameControls
   object useTetris
   object useMultiplayer
   object useMultiplayerRemote
}

package tetris-core {
   Interface PlayerActions
   PlayerActions : void rotateLeft()
   PlayerActions : void rotateRight()
   PlayerActions : void moveRight()
   PlayerActions : void moveLeft()
   PlayerActions : void drop(hardDrop?: boolean)

   Interface GameActions
   GameActions : void endGame(player?: Player)
   GameActions : void start()
   GameActions : void restart()
   GameActions : void togglePause()

   Class Multiplayer
   Multiplayer : + readonly player1Actions
   Multiplayer : + readonly player2Actions
   Class Tetris

   usePlayerControls - -> PlayerActions
   useGameControls - -> GameActions

   PlayerActions <|- - Tetris
   GameActions <|- - Tetris
   GameActions <|- - Multiplayer

   Tetris "2" *- - "1" Multiplayer
}

Multiplayer::player1Actions - -> PlayerActions
Multiplayer::player2Actions - -> PlayerActions

package tetris-ws-client {
   Class MultiplayerClient
   PlayerActions <|- - MultiplayerClient
   GameActions <|- - MultiplayerClient
}

Player - - -> App.tsx
App.tsx - -> Tetris.tsx
App.tsx - -> MultiplayerLocal.tsx
App.tsx - -> MultiplayerRemote.tsx

Tetris.tsx - -> useTetris
MultiplayerLocal.tsx - -> useMultiplayer
MultiplayerRemote.tsx - -> useMultiplayerRemote

useTetris - -> usePlayerControls
useTetris - -> useGameControls

useMultiplayer - -> usePlayerControls
useMultiplayer - -> useGameControls
useMultiplayerRemote - -> usePlayerControls
useMultiplayerRemote - -> useGameControls
@enduml

PlantUML version 1.2019.07(Mon Jun 24 19:59:20 UTC 2019)
(GPL source distribution)
Java Runtime: Java(TM) SE Runtime Environment
JVM: Java HotSpot(TM) 64-Bit Server VM
Java Version: 1.7.0_25-b15
Operating System: Linux
Default Encoding: UTF-8
Language: en
Country: US
--></g></svg>