<?xml version="1.0" encoding="UTF-8" standalone="no"?><svg xmlns="http://www.w3.org/2000/svg" xmlns:xlink="http://www.w3.org/1999/xlink" contentScriptType="application/ecmascript" contentStyleType="text/css" height="565px" preserveAspectRatio="none" style="width:1553px;height:565px;" version="1.1" viewBox="0 0 1553 565" width="1553px" zoomAndPan="magnify"><defs><filter height="300%" id="f15ho72rlhcznc" width="300%" x="-1" y="-1"><feGaussianBlur result="blurOut" stdDeviation="2.0"/><feColorMatrix in="blurOut" result="blurOut2" type="matrix" values="0 0 0 0 0 0 0 0 0 0 0 0 0 0 0 0 0 0 .4 0"/><feOffset dx="4.0" dy="4.0" in="blurOut2" result="blurOut3"/><feBlend in="SourceGraphic" in2="blurOut3" mode="normal"/></filter></defs><g><!--cluster tetris-ws-model--><polygon fill="#FFFFFF" filter="url(#f15ho72rlhcznc)" points="975.5,284,1106.5,284,1113.5,306.2969,1116.5,306.2969,1116.5,371,975.5,371,975.5,284" style="stroke: #000000; stroke-width: 1.5;"/><line style="stroke: #000000; stroke-width: 1.5;" x1="975.5" x2="1113.5" y1="306.2969" y2="306.2969"/><text fill="#000000" font-family="sans-serif" font-size="14" font-weight="bold" lengthAdjust="spacingAndGlyphs" textLength="125" x="979.5" y="298.9951">tetris-ws-model</text><!--cluster tetris-ws-client--><polygon fill="#FFFFFF" filter="url(#f15ho72rlhcznc)" points="255.5,324,381.5,324,388.5,346.2969,401.5,346.2969,401.5,411,255.5,411,255.5,324" style="stroke: #000000; stroke-width: 1.5;"/><line style="stroke: #000000; stroke-width: 1.5;" x1="255.5" x2="388.5" y1="346.2969" y2="346.2969"/><text fill="#000000" font-family="sans-serif" font-size="14" font-weight="bold" lengthAdjust="spacingAndGlyphs" textLength="120" x="259.5" y="338.9951">tetris-ws-client</text><!--cluster tetris-core--><polygon fill="#FFFFFF" filter="url(#f15ho72rlhcznc)" points="1287,166,1377,166,1384,188.2969,1531,188.2969,1531,253,1287,253,1287,166" style="stroke: #000000; stroke-width: 1.5;"/><line style="stroke: #000000; stroke-width: 1.5;" x1="1287" x2="1384" y1="188.2969" y2="188.2969"/><text fill="#000000" font-family="sans-serif" font-size="14" font-weight="bold" lengthAdjust="spacingAndGlyphs" textLength="84" x="1291" y="180.9951">tetris-core</text><!--cluster tetris--><polygon fill="#FFFFFF" filter="url(#f15ho72rlhcznc)" points="22,24,70,24,77,46.2969,403,46.2969,403,253,22,253,22,24" style="stroke: #000000; stroke-width: 1.5;"/><line style="stroke: #000000; stroke-width: 1.5;" x1="22" x2="77" y1="46.2969" y2="46.2969"/><text fill="#000000" font-family="sans-serif" font-size="14" font-weight="bold" lengthAdjust="spacingAndGlyphs" textLength="42" x="26" y="38.9951">tetris</text><!--cluster eureka-server-registry--><polygon fill="#90EE90" filter="url(#f15ho72rlhcznc)" points="565,466,752,466,759,488.2969,762,488.2969,762,553,565,553,565,466" style="stroke: #000000; stroke-width: 1.5;"/><line style="stroke: #000000; stroke-width: 1.5;" x1="565" x2="759" y1="488.2969" y2="488.2969"/><text fill="#000000" font-family="sans-serif" font-size="14" font-weight="bold" lengthAdjust="spacingAndGlyphs" textLength="181" x="569" y="480.9951">eureka-server-registry</text><!--cluster tetris-server--><polygon fill="#FFFFFF" filter="url(#f15ho72rlhcznc)" points="790,395,896,395,903,417.2969,1259,417.2969,1259,482,790,482,790,395" style="stroke: #000000; stroke-width: 1.5;"/><line style="stroke: #000000; stroke-width: 1.5;" x1="790" x2="903" y1="417.2969" y2="417.2969"/><text fill="#000000" font-family="sans-serif" font-size="14" font-weight="bold" lengthAdjust="spacingAndGlyphs" textLength="100" x="794" y="409.9951">tetris-server</text><!--entity models--><rect fill="#FEFECE" filter="url(#f15ho72rlhcznc)" height="36.2969" style="stroke: #A80036; stroke-width: 1.5;" width="71" x="1010.5" y="319"/><rect fill="#FEFECE" height="5" style="stroke: #A80036; stroke-width: 1.5;" width="10" x="1005.5" y="324"/><rect fill="#FEFECE" height="5" style="stroke: #A80036; stroke-width: 1.5;" width="10" x="1005.5" y="345.2969"/><text fill="#000000" font-family="sans-serif" font-size="14" lengthAdjust="spacingAndGlyphs" textLength="51" x="1020.5" y="341.9951">models</text><!--entity RemoteClient--><rect fill="#FEFECE" filter="url(#f15ho72rlhcznc)" height="36.2969" style="stroke: #A80036; stroke-width: 1.5;" width="114" x="271.5" y="359"/><rect fill="#FEFECE" height="5" style="stroke: #A80036; stroke-width: 1.5;" width="10" x="266.5" y="364"/><rect fill="#FEFECE" height="5" style="stroke: #A80036; stroke-width: 1.5;" width="10" x="266.5" y="385.2969"/><text fill="#000000" font-family="sans-serif" font-size="14" lengthAdjust="spacingAndGlyphs" textLength="94" x="281.5" y="381.9951">RemoteClient</text><!--entity Multiplayer--><rect fill="#FEFECE" filter="url(#f15ho72rlhcznc)" height="36.2969" style="stroke: #A80036; stroke-width: 1.5;" width="93" x="1303" y="201"/><rect fill="#FEFECE" height="5" style="stroke: #A80036; stroke-width: 1.5;" width="10" x="1298" y="206"/><rect fill="#FEFECE" height="5" style="stroke: #A80036; stroke-width: 1.5;" width="10" x="1298" y="227.2969"/><text fill="#000000" font-family="sans-serif" font-size="14" lengthAdjust="spacingAndGlyphs" textLength="73" x="1313" y="223.9951">Multiplayer</text><!--entity Tetris--><rect fill="#FEFECE" filter="url(#f15ho72rlhcznc)" height="36.2969" style="stroke: #A80036; stroke-width: 1.5;" width="59" x="1456" y="201"/><rect fill="#FEFECE" height="5" style="stroke: #A80036; stroke-width: 1.5;" width="10" x="1451" y="206"/><rect fill="#FEFECE" height="5" style="stroke: #A80036; stroke-width: 1.5;" width="10" x="1451" y="227.2969"/><text fill="#000000" font-family="sans-serif" font-size="14" lengthAdjust="spacingAndGlyphs" textLength="39" x="1466" y="223.9951">Tetris</text><!--entity SinglePlayer.tsx--><rect fill="#FEFECE" filter="url(#f15ho72rlhcznc)" height="36.2969" style="stroke: #A80036; stroke-width: 1.5;" width="127" x="60.5" y="59"/><rect fill="#FEFECE" height="5" style="stroke: #A80036; stroke-width: 1.5;" width="10" x="55.5" y="64"/><rect fill="#FEFECE" height="5" style="stroke: #A80036; stroke-width: 1.5;" width="10" x="55.5" y="85.2969"/><text fill="#000000" font-family="sans-serif" font-size="14" lengthAdjust="spacingAndGlyphs" textLength="107" x="70.5" y="81.9951">SinglePlayer.tsx</text><!--entity LocalMultiplayer.tsx--><rect fill="#FEFECE" filter="url(#f15ho72rlhcznc)" height="36.2969" style="stroke: #A80036; stroke-width: 1.5;" width="152" x="48" y="130"/><rect fill="#FEFECE" height="5" style="stroke: #A80036; stroke-width: 1.5;" width="10" x="43" y="135"/><rect fill="#FEFECE" height="5" style="stroke: #A80036; stroke-width: 1.5;" width="10" x="43" y="156.2969"/><text fill="#000000" font-family="sans-serif" font-size="14" lengthAdjust="spacingAndGlyphs" textLength="132" x="58" y="152.9951">LocalMultiplayer.tsx</text><!--entity Multiplayer.tsx--><rect fill="#FEFECE" filter="url(#f15ho72rlhcznc)" height="36.2969" style="stroke: #A80036; stroke-width: 1.5;" width="117" x="270" y="59"/><rect fill="#FEFECE" height="5" style="stroke: #A80036; stroke-width: 1.5;" width="10" x="265" y="64"/><rect fill="#FEFECE" height="5" style="stroke: #A80036; stroke-width: 1.5;" width="10" x="265" y="85.2969"/><text fill="#000000" font-family="sans-serif" font-size="14" lengthAdjust="spacingAndGlyphs" textLength="97" x="280" y="81.9951">Multiplayer.tsx</text><!--entity RemoteMultiplayer.tsx--><rect fill="#FEFECE" filter="url(#f15ho72rlhcznc)" height="36.2969" style="stroke: #A80036; stroke-width: 1.5;" width="172" x="38" y="201"/><rect fill="#FEFECE" height="5" style="stroke: #A80036; stroke-width: 1.5;" width="10" x="33" y="206"/><rect fill="#FEFECE" height="5" style="stroke: #A80036; stroke-width: 1.5;" width="10" x="33" y="227.2969"/><text fill="#000000" font-family="sans-serif" font-size="14" lengthAdjust="spacingAndGlyphs" textLength="152" x="48" y="223.9951">RemoteMultiplayer.tsx</text><!--entity RegistryServer--><rect fill="#FEFECE" filter="url(#f15ho72rlhcznc)" height="36.2969" style="stroke: #A80036; stroke-width: 1.5;" width="120" x="603" y="501"/><rect fill="#FEFECE" height="5" style="stroke: #A80036; stroke-width: 1.5;" width="10" x="598" y="506"/><rect fill="#FEFECE" height="5" style="stroke: #A80036; stroke-width: 1.5;" width="10" x="598" y="527.2969"/><text fill="#000000" font-family="sans-serif" font-size="14" lengthAdjust="spacingAndGlyphs" textLength="100" x="613" y="523.9951">RegistryServer</text><!--entity GameServer--><rect fill="#FEFECE" filter="url(#f15ho72rlhcznc)" height="36.2969" style="stroke: #A80036; stroke-width: 1.5;" width="105" x="806" y="430"/><rect fill="#FEFECE" height="5" style="stroke: #A80036; stroke-width: 1.5;" width="10" x="801" y="435"/><rect fill="#FEFECE" height="5" style="stroke: #A80036; stroke-width: 1.5;" width="10" x="801" y="456.2969"/><text fill="#000000" font-family="sans-serif" font-size="14" lengthAdjust="spacingAndGlyphs" textLength="85" x="816" y="452.9951">GameServer</text><!--entity MatchService--><rect fill="#FEFECE" filter="url(#f15ho72rlhcznc)" height="36.2969" style="stroke: #A80036; stroke-width: 1.5;" width="112" x="990" y="430"/><rect fill="#FEFECE" height="5" style="stroke: #A80036; stroke-width: 1.5;" width="10" x="985" y="435"/><rect fill="#FEFECE" height="5" style="stroke: #A80036; stroke-width: 1.5;" width="10" x="985" y="456.2969"/><text fill="#000000" font-family="sans-serif" font-size="14" lengthAdjust="spacingAndGlyphs" textLength="92" x="1000" y="452.9951">MatchService</text><!--entity Match--><rect fill="#FEFECE" filter="url(#f15ho72rlhcznc)" height="36.2969" style="stroke: #A80036; stroke-width: 1.5;" width="62" x="1181" y="430"/><rect fill="#FEFECE" height="5" style="stroke: #A80036; stroke-width: 1.5;" width="10" x="1176" y="435"/><rect fill="#FEFECE" height="5" style="stroke: #A80036; stroke-width: 1.5;" width="10" x="1176" y="456.2969"/><text fill="#000000" font-family="sans-serif" font-size="14" lengthAdjust="spacingAndGlyphs" textLength="42" x="1191" y="452.9951">Match</text><!--entity internet--><path d="M450,421 C450,418 452,416 455,416 C458,416 460,418 460,421 C460,418 462,416 465,416 C468,416 470,418 470,421 C470,418 472,416 475,416 C478,416 480,418 480,421 C480,418 482,416 485,416 C488,416 490,418 490,421 C490,418 492,416 495,416 C498,416 500,418 500,421 C500,418 502,416 505,416 C508,416 510,418 510,421 C510,418 512,416 515,416 C518,416 520,418 520,421 C523,421 525,423 525,426 C525,429 523,431 520,431 C523,431 525,433 525,436 C525,439 523,441 520,441 C520,444 517,446 515,446 C512,446 510,444 510,441 C510,444 507,446 505,446 C502,446 500,444 500,441 C500,444 497,446 495,446 C492,446 490,444 490,441 C490,444 487,446 485,446 C482,446 480,444 480,441 C480,444 477,446 475,446 C472,446 470,444 470,441 C470,444 467,446 465,446 C462,446 460,444 460,441 C460,444 457,446 455,446 C452,446 450,444 450,441 C447,441 445,439 445,436 C445,433 447,431 450,431 C447,431 445,429 445,426 C445,423 447,421 450,421 " fill="#FFFFFF" filter="url(#f15ho72rlhcznc)" style="stroke: #000000; stroke-width: 1.5;"/><text fill="#000000" font-family="sans-serif" font-size="14" lengthAdjust="spacingAndGlyphs" textLength="54" x="457" y="436.9951">internet</text><!--link Multiplayer to Tetris--><path d="M1409.49,219 C1425.53,219 1442.19,219 1455.73,219 " fill="none" id="Multiplayer-Tetris" style="stroke: #A80036; stroke-width: 1.0;"/><polygon fill="#A80036" points="1396.24,219,1402.24,223,1408.24,219,1402.24,215,1396.24,219" style="stroke: #A80036; stroke-width: 1.0;"/><text fill="#000000" font-family="sans-serif" font-size="13" lengthAdjust="spacingAndGlyphs" textLength="8" x="1404.0096" y="232.2028">1</text><text fill="#000000" font-family="sans-serif" font-size="13" lengthAdjust="spacingAndGlyphs" textLength="8" x="1439.9207" y="232.7823">2</text><!--link LocalMultiplayer.tsx to Multiplayer.tsx--><path d="M176.361,129.992 C205.16,119.894 241.138,107.28 270.766,96.892 " fill="none" id="LocalMultiplayer.tsx-Multiplayer.tsx" style="stroke: #A80036; stroke-width: 1.0;"/><polygon fill="#A80036" points="275.842,95.112,266.0252,94.3175,271.124,96.7675,268.674,101.8663,275.842,95.112" style="stroke: #A80036; stroke-width: 1.0;"/><!--link RemoteMultiplayer.tsx to Multiplayer.tsx--><path d="M177.224,200.857 C188.406,196.061 199.889,190.405 210,184 C248.117,159.856 285.485,122.893 307.506,99.342 " fill="none" id="RemoteMultiplayer.tsx-Multiplayer.tsx" style="stroke: #A80036; stroke-width: 1.0;"/><polygon fill="#A80036" points="311.171,95.395,302.1164,99.2698,307.7693,99.0595,307.9796,104.7125,311.171,95.395" style="stroke: #A80036; stroke-width: 1.0;"/><!--link RemoteMultiplayer.tsx to RemoteClient--><path d="M147.48,237.002 C171.977,256.571 212.37,288.702 247.5,316 C264.645,329.322 284.003,344.09 299.382,355.758 " fill="none" id="RemoteMultiplayer.tsx-RemoteClient" style="stroke: #A80036; stroke-width: 1.0;"/><polygon fill="#A80036" points="303.609,358.963,298.8548,350.3376,299.625,355.9418,294.0208,356.712,303.609,358.963" style="stroke: #A80036; stroke-width: 1.0;"/><!--link GameServer to MatchService--><path d="M911.172,448 C933.991,448 960.968,448 984.7,448 " fill="none" id="GameServer-MatchService" style="stroke: #A80036; stroke-width: 1.0;"/><polygon fill="#A80036" points="989.713,448,980.713,444,984.713,448,980.713,452,989.713,448" style="stroke: #A80036; stroke-width: 1.0;"/><!--link MatchService to Match--><path d="M1102.07,448 C1126.36,448 1154.2,448 1175.66,448 " fill="none" id="MatchService-Match" style="stroke: #A80036; stroke-width: 1.0;"/><polygon fill="#A80036" points="1180.69,448,1171.69,444,1175.69,448,1171.69,452,1180.69,448" style="stroke: #A80036; stroke-width: 1.0;"/><!--link internet to GameServer--><path d="M521.055,433.549 C587.425,436.399 729.138,442.486 805.759,445.778 " fill="none" id="internet-GameServer" style="stroke: #A80036; stroke-width: 1.0;"/><ellipse cx="659.5629" cy="439.4978" fill="#FFFFFF" rx="6" ry="6" style="stroke: #A80036; stroke-width: 1.5;"/><!--link internet to RegistryServer--><path d="M521.246,449.816 C551.588,464.73 594.697,485.9188 625.194,500.9092 " fill="none" id="internet-RegistryServer" style="stroke: #A80036; stroke-width: 1.0;"/><ellipse cx="573.1619" cy="475.334" fill="#FFFFFF" rx="6" ry="6" style="stroke: #A80036; stroke-width: 1.5;"/><!--link RegistryServer to GameServer--><path d="M725.41,496.4672 C752.106,486.6717 782.964,475.3492 808.138,466.112 " fill="none" id="RegistryServer-GameServer" style="stroke: #A80036; stroke-width: 1.0;"/><polygon fill="#A80036" points="713.078,500.9919,720.0887,502.68,724.3434,496.8579,717.3327,495.1698,713.078,500.9919" style="stroke: #A80036; stroke-width: 1.0;"/><text fill="#000000" font-family="sans-serif" font-size="13" lengthAdjust="spacingAndGlyphs" textLength="8" x="719.7654" y="489.9019">1</text><text fill="#000000" font-family="sans-serif" font-size="13" lengthAdjust="spacingAndGlyphs" textLength="7" x="790.8706" y="483.0455">*</text><!--link Match to Multiplayer--><path d="M1230.66,418.159 C1259.17,369.971 1314.5,276.454 1337.78,237.122 " fill="none" id="Match-Multiplayer" style="stroke: #A80036; stroke-width: 1.0;"/><polygon fill="#A80036" points="1223.86,429.647,1230.3565,426.5171,1229.966,419.3166,1223.4695,422.4465,1223.86,429.647" style="stroke: #A80036; stroke-width: 1.0;"/><text fill="#000000" font-family="sans-serif" font-size="13" lengthAdjust="spacingAndGlyphs" textLength="8" x="1218.1689" y="419.0955">1</text><text fill="#000000" font-family="sans-serif" font-size="13" lengthAdjust="spacingAndGlyphs" textLength="8" x="1324.7693" y="257.3298">1</text><!--link RemoteClient to models--><path d="M385.644,373.861 C525.065,366.067 884.495,345.973 1004.967,339.238 " fill="none" id="RemoteClient-models" style="stroke: #A80036; stroke-width: 1.0;"/><polygon fill="#A80036" points="1010.18,338.947,1000.9701,335.4574,1005.1878,339.227,1001.4182,343.4448,1010.18,338.947" style="stroke: #A80036; stroke-width: 1.0;"/><!--link GameServer to models--><path d="M889.717,429.919 C922.729,410.165 975.526,378.572 1010.23,357.803 " fill="none" id="GameServer-models" style="stroke: #A80036; stroke-width: 1.0;"/><polygon fill="#A80036" points="1014.8,355.073,1005.0211,356.2452,1010.5051,357.6331,1009.1172,363.117,1014.8,355.073" style="stroke: #A80036; stroke-width: 1.0;"/><!--link SinglePlayer.tsx to Tetris--><path d="M180.441,95.008 C250.233,116.043 374.174,148 483,148 C483,148 483,148 1213,148 C1301.26,148 1400.56,183.554 1451.08,204.343 " fill="none" id="SinglePlayer.tsx-Tetris" style="stroke: #A80036; stroke-width: 1.0;"/><polygon fill="#A80036" points="1455.82,206.307,1449.0374,199.1658,1451.201,204.3925,1445.9743,206.5562,1455.82,206.307" style="stroke: #A80036; stroke-width: 1.0;"/><!--link LocalMultiplayer.tsx to Multiplayer--><path d="M180.441,166.008 C250.233,187.043 374.174,219 483,219 C483,219 483,219 1047,219 C1135.03,219 1237.51,219 1297.47,219 " fill="none" id="LocalMultiplayer.tsx-Multiplayer" style="stroke: #A80036; stroke-width: 1.0;"/><polygon fill="#A80036" points="1302.78,219,1293.78,215,1297.78,219,1293.78,223,1302.78,219" style="stroke: #A80036; stroke-width: 1.0;"/><!--link RemoteClient to internet--><path d="M379.762,395.009 C401.621,402.841 426.747,411.844 446.738,419.007 " fill="none" id="RemoteClient-internet" style="stroke: #A80036; stroke-width: 1.0;"/><ellipse cx="413.9505" cy="407.2589" fill="#FFFFFF" rx="6" ry="6" style="stroke: #A80036; stroke-width: 1.5;"/><!--link RemoteMultiplayer.tsx to models--><path d="M180.441,237.008 C250.233,258.043 374.174,290 483,290 C483,290 483,290 664,290 C789.201,290 935.815,315.309 1004.997,328.782 " fill="none" id="RemoteMultiplayer.tsx-models" style="stroke: #A80036; stroke-width: 1.0;"/><polygon fill="#A80036" points="1010.25,329.811,1002.1873,324.1548,1005.3433,328.8494,1000.6487,332.0054,1010.25,329.811" style="stroke: #A80036; stroke-width: 1.0;"/><!--
@startuml
left to right direction

package "tetris-ws-model" {
   [models]
}

package "tetris-ws-client" {
   [RemoteClient]
}
package "tetris-core" {
  [Multiplayer] "1" *- - "2" [Tetris]
}

package "tetris" {
  [SinglePlayer.tsx]
  [LocalMultiplayer.tsx]
  [Multiplayer.tsx]
  [RemoteMultiplayer.tsx]
  [LocalMultiplayer.tsx] - -> [Multiplayer.tsx]
  [RemoteMultiplayer.tsx] - -> [Multiplayer.tsx]
  [RemoteMultiplayer.tsx] - -> [RemoteClient]
}

package "eureka-server-registry" #LightGreen {
   [RegistryServer]
}

package "tetris-server" {
   [GameServer] - -> [MatchService]
   [MatchService] - -> [Match]
}

cloud "internet" {
}

internet -0- [GameServer]
internet -0- [RegistryServer]
[RegistryServer] "1" *- - "*" [GameServer]
[Match] "1" *- - "1" [Multiplayer]
[RemoteClient] - -> [models]
[GameServer] - -> [models]
[SinglePlayer.tsx] - -> [Tetris]
[LocalMultiplayer.tsx] - -> [Multiplayer]
[RemoteClient] -0- internet
[RemoteMultiplayer.tsx] - -> [models]
@enduml

PlantUML version 1.2019.01(Sat Feb 09 15:32:04 UTC 2019)
(GPL source distribution)
Java Runtime: Java(TM) SE Runtime Environment
JVM: Java HotSpot(TM) 64-Bit Server VM
Java Version: 1.7.0_25-b15
Operating System: Linux
Default Encoding: UTF-8
Language: en
Country: US
--></g></svg>