<?xml version="1.0" encoding="UTF-8" standalone="no"?><svg xmlns="http://www.w3.org/2000/svg" xmlns:xlink="http://www.w3.org/1999/xlink" contentScriptType="application/ecmascript" contentStyleType="text/css" height="411px" preserveAspectRatio="none" style="width:418px;height:411px;" version="1.1" viewBox="0 0 418 411" width="418px" zoomAndPan="magnify"><defs><filter height="300%" id="f1ab4ld7j9z6yw" width="300%" x="-1" y="-1"><feGaussianBlur result="blurOut" stdDeviation="2.0"/><feColorMatrix in="blurOut" result="blurOut2" type="matrix" values="0 0 0 0 0 0 0 0 0 0 0 0 0 0 0 0 0 0 .4 0"/><feOffset dx="4.0" dy="4.0" in="blurOut2" result="blurOut3"/><feBlend in="SourceGraphic" in2="blurOut3" mode="normal"/></filter></defs><g><polygon fill="#FFFFFF" filter="url(#f1ab4ld7j9z6yw)" points="138.277,234,269.277,234,276.277,256.2969,283.277,256.2969,283.277,286.5938,138.277,286.5938,138.277,234" style="stroke: #000000; stroke-width: 1.5;"/><line style="stroke: #000000; stroke-width: 1.5;" x1="138.277" x2="276.277" y1="256.2969" y2="256.2969"/><text fill="#000000" font-family="sans-serif" font-size="14" font-weight="bold" lengthAdjust="spacingAndGlyphs" textLength="125" x="142.277" y="248.9951">tetris-ws-model</text><polygon fill="#FFFFFF" filter="url(#f1ab4ld7j9z6yw)" points="30.7773,121,156.7773,121,163.7773,143.2969,170.7773,143.2969,170.7773,173.5938,30.7773,173.5938,30.7773,121" style="stroke: #000000; stroke-width: 1.5;"/><line style="stroke: #000000; stroke-width: 1.5;" x1="30.7773" x2="163.7773" y1="143.2969" y2="143.2969"/><text fill="#000000" font-family="sans-serif" font-size="14" font-weight="bold" lengthAdjust="spacingAndGlyphs" textLength="120" x="34.7773" y="135.9951">tetris-ws-client</text><polygon fill="#FFFFFF" filter="url(#f1ab4ld7j9z6yw)" points="158.777,347,248.777,347,255.777,369.2969,262.777,369.2969,262.777,399.5938,158.777,399.5938,158.777,347" style="stroke: #000000; stroke-width: 1.5;"/><line style="stroke: #000000; stroke-width: 1.5;" x1="158.777" x2="255.777" y1="369.2969" y2="369.2969"/><text fill="#000000" font-family="sans-serif" font-size="14" font-weight="bold" lengthAdjust="spacingAndGlyphs" textLength="84" x="162.777" y="361.9951">tetris-core</text><polygon fill="#FFFFFF" filter="url(#f1ab4ld7j9z6yw)" points="69.7773,8,117.7773,8,124.7773,30.2969,131.7773,30.2969,131.7773,60.5938,69.7773,60.5938,69.7773,8" style="stroke: #000000; stroke-width: 1.5;"/><line style="stroke: #000000; stroke-width: 1.5;" x1="69.7773" x2="124.7773" y1="30.2969" y2="30.2969"/><text fill="#000000" font-family="sans-serif" font-size="14" font-weight="bold" lengthAdjust="spacingAndGlyphs" textLength="42" x="73.7773" y="22.9951">tetris</text><polygon fill="#FFFFFF" filter="url(#f1ab4ld7j9z6yw)" points="276.777,121,382.777,121,389.777,143.2969,396.777,143.2969,396.777,173.5938,276.777,173.5938,276.777,121" style="stroke: #000000; stroke-width: 1.5;"/><line style="stroke: #000000; stroke-width: 1.5;" x1="276.777" x2="389.777" y1="143.2969" y2="143.2969"/><text fill="#000000" font-family="sans-serif" font-size="14" font-weight="bold" lengthAdjust="spacingAndGlyphs" textLength="100" x="280.777" y="135.9951">tetris-server</text><!--link tetris to tetris-core--><path d="M69.6588,55.663 C49.258,70.864 24.3049,93.727 12.7773,121 C3.6065,142.697 4.0097,152.137 12.7773,174 C42.8503,248.99 117.168,310.1871 165.711,343.9501 " fill="none" id="tetris-tetris-core" style="stroke: #A80036; stroke-width: 1.0;"/><polygon fill="#A80036" points="170.034,346.9318,164.8961,338.5293,165.918,344.0931,160.3542,345.115,170.034,346.9318" style="stroke: #A80036; stroke-width: 1.0;"/><!--link tetris to tetris-ws-client--><path d="M100.7773,61.245 C100.7773,77.496 100.7773,98.579 100.7773,115.714 " fill="none" id="tetris-tetris-ws-client" style="stroke: #A80036; stroke-width: 1.0;"/><polygon fill="#A80036" points="100.7773,120.895,104.7773,111.895,100.7773,115.895,96.7773,111.895,100.7773,120.895" style="stroke: #A80036; stroke-width: 1.0;"/><!--link tetris to tetris-ws-model--><path d="M131.876,57.745 C151.12,73.243 174.592,95.633 187.777,121 C205.397,154.9 210.063,199.209 211.032,228.472 " fill="none" id="tetris-tetris-ws-model" style="stroke: #A80036; stroke-width: 1.0;"/><polygon fill="#A80036" points="211.172,233.756,214.9315,224.6529,211.0392,228.7578,206.9343,224.8655,211.172,233.756" style="stroke: #A80036; stroke-width: 1.0;"/><!--link tetris-server to tetris-core--><path d="M334.389,174.12 C330.747,203.209 321.847,251.258 300.777,287 C287.957,308.7482 268.025,328.4953 250.174,343.5189 " fill="none" id="tetris-server-tetris-core" style="stroke: #A80036; stroke-width: 1.0;"/><polygon fill="#A80036" points="246.163,346.8454,255.6442,344.1795,250.0118,343.6538,250.5376,338.0214,246.163,346.8454" style="stroke: #A80036; stroke-width: 1.0;"/><!--link tetris-server to tetris-ws-model--><path d="M307.554,174.245 C288.47,191.056 263.517,213.039 243.728,230.472 " fill="none" id="tetris-server-tetris-ws-model" style="stroke: #A80036; stroke-width: 1.0;"/><polygon fill="#A80036" points="239.842,233.895,249.239,230.9459,243.5934,230.5893,243.9499,224.9437,239.842,233.895" style="stroke: #A80036; stroke-width: 1.0;"/><!--link tetris-ws-model to tetris-core--><path d="M210.777,287.245 C210.777,303.4958 210.777,324.5795 210.777,341.7139 " fill="none" id="tetris-ws-model-tetris-core" style="stroke: #A80036; stroke-width: 1.0;"/><polygon fill="#A80036" points="210.777,346.895,214.777,337.895,210.777,341.895,206.777,337.895,210.777,346.895" style="stroke: #A80036; stroke-width: 1.0;"/><!--link tetris-ws-client to tetris-ws-model--><path d="M126.29,174.245 C142.811,190.916 164.372,212.673 181.578,230.035 " fill="none" id="tetris-ws-client-tetris-ws-model" style="stroke: #A80036; stroke-width: 1.0;"/><polygon fill="#A80036" points="185.403,233.895,181.9121,224.6856,181.8846,230.3424,176.2279,230.3149,185.403,233.895" style="stroke: #A80036; stroke-width: 1.0;"/><!--
@startuml
package "tetris-ws-model" {
}

package "tetris-ws-client" {
}

package "tetris-core" {
}

package "tetris" {
}


package "tetris-server" {
}

"tetris" - -> "tetris-core"
"tetris" - -> "tetris-ws-client"
"tetris" - -> "tetris-ws-model"
"tetris-server" - -> "tetris-core"
"tetris-server" - -> "tetris-ws-model"
"tetris-ws-model" - -> "tetris-core"
"tetris-ws-client" - -> "tetris-ws-model"
@enduml

PlantUML version 1.2019.01(Sat Feb 09 15:32:04 UTC 2019)
(GPL source distribution)
Java Runtime: Java(TM) SE Runtime Environment
JVM: Java HotSpot(TM) 64-Bit Server VM
Java Version: 1.7.0_25-b15
Operating System: Linux
Default Encoding: UTF-8
Language: en
Country: US
--></g></svg>