<?xml version="1.0" encoding="UTF-8" standalone="no"?><svg xmlns="http://www.w3.org/2000/svg" xmlns:xlink="http://www.w3.org/1999/xlink" contentScriptType="application/ecmascript" contentStyleType="text/css" height="460px" preserveAspectRatio="none" style="width:1286px;height:460px;" version="1.1" viewBox="0 0 1286 460" width="1286px" zoomAndPan="magnify"><defs><filter height="300%" id="f1pbcnlxukuly0" width="300%" x="-1" y="-1"><feGaussianBlur result="blurOut" stdDeviation="2.0"/><feColorMatrix in="blurOut" result="blurOut2" type="matrix" values="0 0 0 0 0 0 0 0 0 0 0 0 0 0 0 0 0 0 .4 0"/><feOffset dx="4.0" dy="4.0" in="blurOut2" result="blurOut3"/><feBlend in="SourceGraphic" in2="blurOut3" mode="normal"/></filter></defs><g><!--cluster tetris-ws-model--><polygon fill="#FFFFFF" filter="url(#f1pbcnlxukuly0)" points="708.5,213,839.5,213,846.5,235.2969,849.5,235.2969,849.5,300,708.5,300,708.5,213" style="stroke: #000000; stroke-width: 1.5;"/><line style="stroke: #000000; stroke-width: 1.5;" x1="708.5" x2="846.5" y1="235.2969" y2="235.2969"/><text fill="#000000" font-family="sans-serif" font-size="14" font-weight="bold" lengthAdjust="spacingAndGlyphs" textLength="125" x="712.5" y="227.9951">tetris-ws-model</text><!--cluster tetris-ws-client--><polygon fill="#FFFFFF" filter="url(#f1pbcnlxukuly0)" points="255.5,277,381.5,277,388.5,299.2969,401.5,299.2969,401.5,364,255.5,364,255.5,277" style="stroke: #000000; stroke-width: 1.5;"/><line style="stroke: #000000; stroke-width: 1.5;" x1="255.5" x2="388.5" y1="299.2969" y2="299.2969"/><text fill="#000000" font-family="sans-serif" font-size="14" font-weight="bold" lengthAdjust="spacingAndGlyphs" textLength="120" x="259.5" y="291.9951">tetris-ws-client</text><!--cluster tetris-core--><polygon fill="#FFFFFF" filter="url(#f1pbcnlxukuly0)" points="1020,324,1110,324,1117,346.2969,1264,346.2969,1264,411,1020,411,1020,324" style="stroke: #000000; stroke-width: 1.5;"/><line style="stroke: #000000; stroke-width: 1.5;" x1="1020" x2="1117" y1="346.2969" y2="346.2969"/><text fill="#000000" font-family="sans-serif" font-size="14" font-weight="bold" lengthAdjust="spacingAndGlyphs" textLength="84" x="1024" y="338.9951">tetris-core</text><!--cluster tetris--><polygon fill="#FFFFFF" filter="url(#f1pbcnlxukuly0)" points="22,24,70,24,77,46.2969,403,46.2969,403,253,22,253,22,24" style="stroke: #000000; stroke-width: 1.5;"/><line style="stroke: #000000; stroke-width: 1.5;" x1="22" x2="77" y1="46.2969" y2="46.2969"/><text fill="#000000" font-family="sans-serif" font-size="14" font-weight="bold" lengthAdjust="spacingAndGlyphs" textLength="42" x="26" y="38.9951">tetris</text><!--cluster tetris-server--><polygon fill="#FFFFFF" filter="url(#f1pbcnlxukuly0)" points="565,324,671,324,678,346.2969,992,346.2969,992,411,565,411,565,324" style="stroke: #000000; stroke-width: 1.5;"/><line style="stroke: #000000; stroke-width: 1.5;" x1="565" x2="678" y1="346.2969" y2="346.2969"/><text fill="#000000" font-family="sans-serif" font-size="14" font-weight="bold" lengthAdjust="spacingAndGlyphs" textLength="100" x="569" y="338.9951">tetris-server</text><!--entity models--><rect fill="#FEFECE" filter="url(#f1pbcnlxukuly0)" height="36.2969" style="stroke: #A80036; stroke-width: 1.5;" width="71" x="743.5" y="248"/><rect fill="#FEFECE" height="5" style="stroke: #A80036; stroke-width: 1.5;" width="10" x="738.5" y="253"/><rect fill="#FEFECE" height="5" style="stroke: #A80036; stroke-width: 1.5;" width="10" x="738.5" y="274.2969"/><text fill="#000000" font-family="sans-serif" font-size="14" lengthAdjust="spacingAndGlyphs" textLength="51" x="753.5" y="270.9951">models</text><!--entity RemoteClient--><rect fill="#FEFECE" filter="url(#f1pbcnlxukuly0)" height="36.2969" style="stroke: #A80036; stroke-width: 1.5;" width="114" x="271.5" y="312"/><rect fill="#FEFECE" height="5" style="stroke: #A80036; stroke-width: 1.5;" width="10" x="266.5" y="317"/><rect fill="#FEFECE" height="5" style="stroke: #A80036; stroke-width: 1.5;" width="10" x="266.5" y="338.2969"/><text fill="#000000" font-family="sans-serif" font-size="14" lengthAdjust="spacingAndGlyphs" textLength="94" x="281.5" y="334.9951">RemoteClient</text><!--entity Multiplayer--><rect fill="#FEFECE" filter="url(#f1pbcnlxukuly0)" height="36.2969" style="stroke: #A80036; stroke-width: 1.5;" width="93" x="1036" y="359"/><rect fill="#FEFECE" height="5" style="stroke: #A80036; stroke-width: 1.5;" width="10" x="1031" y="364"/><rect fill="#FEFECE" height="5" style="stroke: #A80036; stroke-width: 1.5;" width="10" x="1031" y="385.2969"/><text fill="#000000" font-family="sans-serif" font-size="14" lengthAdjust="spacingAndGlyphs" textLength="73" x="1046" y="381.9951">Multiplayer</text><!--entity Tetris--><rect fill="#FEFECE" filter="url(#f1pbcnlxukuly0)" height="36.2969" style="stroke: #A80036; stroke-width: 1.5;" width="59" x="1189" y="359"/><rect fill="#FEFECE" height="5" style="stroke: #A80036; stroke-width: 1.5;" width="10" x="1184" y="364"/><rect fill="#FEFECE" height="5" style="stroke: #A80036; stroke-width: 1.5;" width="10" x="1184" y="385.2969"/><text fill="#000000" font-family="sans-serif" font-size="14" lengthAdjust="spacingAndGlyphs" textLength="39" x="1199" y="381.9951">Tetris</text><!--entity LocalMultiplayer.tsx--><rect fill="#FEFECE" filter="url(#f1pbcnlxukuly0)" height="36.2969" style="stroke: #A80036; stroke-width: 1.5;" width="152" x="48" y="59"/><rect fill="#FEFECE" height="5" style="stroke: #A80036; stroke-width: 1.5;" width="10" x="43" y="64"/><rect fill="#FEFECE" height="5" style="stroke: #A80036; stroke-width: 1.5;" width="10" x="43" y="85.2969"/><text fill="#000000" font-family="sans-serif" font-size="14" lengthAdjust="spacingAndGlyphs" textLength="132" x="58" y="81.9951">LocalMultiplayer.tsx</text><!--entity Multiplayer.tsx--><rect fill="#FEFECE" filter="url(#f1pbcnlxukuly0)" height="36.2969" style="stroke: #A80036; stroke-width: 1.5;" width="117" x="270" y="59"/><rect fill="#FEFECE" height="5" style="stroke: #A80036; stroke-width: 1.5;" width="10" x="265" y="64"/><rect fill="#FEFECE" height="5" style="stroke: #A80036; stroke-width: 1.5;" width="10" x="265" y="85.2969"/><text fill="#000000" font-family="sans-serif" font-size="14" lengthAdjust="spacingAndGlyphs" textLength="97" x="280" y="81.9951">Multiplayer.tsx</text><!--entity RemoteMultiplayer.tsx--><rect fill="#FEFECE" filter="url(#f1pbcnlxukuly0)" height="36.2969" style="stroke: #A80036; stroke-width: 1.5;" width="172" x="38" y="130"/><rect fill="#FEFECE" height="5" style="stroke: #A80036; stroke-width: 1.5;" width="10" x="33" y="135"/><rect fill="#FEFECE" height="5" style="stroke: #A80036; stroke-width: 1.5;" width="10" x="33" y="156.2969"/><text fill="#000000" font-family="sans-serif" font-size="14" lengthAdjust="spacingAndGlyphs" textLength="152" x="48" y="152.9951">RemoteMultiplayer.tsx</text><!--entity SinglePlayer.tsx--><rect fill="#FEFECE" filter="url(#f1pbcnlxukuly0)" height="36.2969" style="stroke: #A80036; stroke-width: 1.5;" width="127" x="60.5" y="201"/><rect fill="#FEFECE" height="5" style="stroke: #A80036; stroke-width: 1.5;" width="10" x="55.5" y="206"/><rect fill="#FEFECE" height="5" style="stroke: #A80036; stroke-width: 1.5;" width="10" x="55.5" y="227.2969"/><text fill="#000000" font-family="sans-serif" font-size="14" lengthAdjust="spacingAndGlyphs" textLength="107" x="70.5" y="223.9951">SinglePlayer.tsx</text><!--entity server--><rect fill="#FEFECE" filter="url(#f1pbcnlxukuly0)" height="36.2969" style="stroke: #A80036; stroke-width: 1.5;" width="63" x="581" y="359"/><rect fill="#FEFECE" height="5" style="stroke: #A80036; stroke-width: 1.5;" width="10" x="576" y="364"/><rect fill="#FEFECE" height="5" style="stroke: #A80036; stroke-width: 1.5;" width="10" x="576" y="385.2969"/><text fill="#000000" font-family="sans-serif" font-size="14" lengthAdjust="spacingAndGlyphs" textLength="43" x="591" y="381.9951">server</text><!--entity MatchService--><rect fill="#FEFECE" filter="url(#f1pbcnlxukuly0)" height="36.2969" style="stroke: #A80036; stroke-width: 1.5;" width="112" x="723" y="359"/><rect fill="#FEFECE" height="5" style="stroke: #A80036; stroke-width: 1.5;" width="10" x="718" y="364"/><rect fill="#FEFECE" height="5" style="stroke: #A80036; stroke-width: 1.5;" width="10" x="718" y="385.2969"/><text fill="#000000" font-family="sans-serif" font-size="14" lengthAdjust="spacingAndGlyphs" textLength="92" x="733" y="381.9951">MatchService</text><!--entity Match--><rect fill="#FEFECE" filter="url(#f1pbcnlxukuly0)" height="36.2969" style="stroke: #A80036; stroke-width: 1.5;" width="62" x="914" y="359"/><rect fill="#FEFECE" height="5" style="stroke: #A80036; stroke-width: 1.5;" width="10" x="909" y="364"/><rect fill="#FEFECE" height="5" style="stroke: #A80036; stroke-width: 1.5;" width="10" x="909" y="385.2969"/><text fill="#000000" font-family="sans-serif" font-size="14" lengthAdjust="spacingAndGlyphs" textLength="42" x="924" y="381.9951">Match</text><!--entity internet--><path d="M450,358 C450,355 452,353 455,353 C458,353 460,355 460,358 C460,355 462,353 465,353 C468,353 470,355 470,358 C470,355 472,353 475,353 C478,353 480,355 480,358 C480,355 482,353 485,353 C488,353 490,355 490,358 C490,355 492,353 495,353 C498,353 500,355 500,358 C500,355 502,353 505,353 C508,353 510,355 510,358 C510,355 512,353 515,353 C518,353 520,355 520,358 C523,358 525,360 525,363 C525,366 523,368 520,368 C523,368 525,370 525,373 C525,376 523,378 520,378 C520,381 517,383 515,383 C512,383 510,381 510,378 C510,381 507,383 505,383 C502,383 500,381 500,378 C500,381 497,383 495,383 C492,383 490,381 490,378 C490,381 487,383 485,383 C482,383 480,381 480,378 C480,381 477,383 475,383 C472,383 470,381 470,378 C470,381 467,383 465,383 C462,383 460,381 460,378 C460,381 457,383 455,383 C452,383 450,381 450,378 C447,378 445,376 445,373 C445,370 447,368 450,368 C447,368 445,366 445,363 C445,360 447,358 450,358 " fill="#FFFFFF" filter="url(#f1pbcnlxukuly0)" style="stroke: #000000; stroke-width: 1.5;"/><text fill="#000000" font-family="sans-serif" font-size="14" lengthAdjust="spacingAndGlyphs" textLength="54" x="457" y="373.9951">internet</text><!--link Multiplayer to Tetris--><path d="M1142.49,377 C1158.53,377 1175.19,377 1188.73,377 " fill="none" id="Multiplayer-Tetris" style="stroke: #A80036; stroke-width: 1.0;"/><polygon fill="#A80036" points="1129.24,377,1135.24,381,1141.24,377,1135.24,373,1129.24,377" style="stroke: #A80036; stroke-width: 1.0;"/><text fill="#000000" font-family="sans-serif" font-size="13" lengthAdjust="spacingAndGlyphs" textLength="8" x="1137.0096" y="390.2028">1</text><text fill="#000000" font-family="sans-serif" font-size="13" lengthAdjust="spacingAndGlyphs" textLength="8" x="1172.9207" y="390.7823">2</text><!--link LocalMultiplayer.tsx to Multiplayer.tsx--><path d="M200.116,77 C221.387,77 244.311,77 264.769,77 " fill="none" id="LocalMultiplayer.tsx-Multiplayer.tsx" style="stroke: #A80036; stroke-width: 1.0;"/><polygon fill="#A80036" points="269.914,77,260.914,73,264.914,77,260.914,81,269.914,77" style="stroke: #A80036; stroke-width: 1.0;"/><!--link RemoteMultiplayer.tsx to RemoteClient--><path d="M182.577,166.096 C192.436,170.881 202.048,176.785 210,184 C235.85,207.452 226.345,225.239 247.5,253 C263.226,273.637 284.53,293.858 301.199,308.396 " fill="none" id="RemoteMultiplayer.tsx-RemoteClient" style="stroke: #A80036; stroke-width: 1.0;"/><polygon fill="#A80036" points="305.331,311.967,301.1364,303.056,301.5478,308.6979,295.9059,309.1092,305.331,311.967" style="stroke: #A80036; stroke-width: 1.0;"/><!--link RemoteMultiplayer.tsx to Multiplayer.tsx--><path d="M176.361,129.992 C205.16,119.894 241.138,107.28 270.766,96.892 " fill="none" id="RemoteMultiplayer.tsx-Multiplayer.tsx" style="stroke: #A80036; stroke-width: 1.0;"/><polygon fill="#A80036" points="275.842,95.112,266.0252,94.3175,271.124,96.7675,268.674,101.8663,275.842,95.112" style="stroke: #A80036; stroke-width: 1.0;"/><!--link server to MatchService--><path d="M644.056,377 C664.701,377 692.653,377 717.683,377 " fill="none" id="server-MatchService" style="stroke: #A80036; stroke-width: 1.0;"/><polygon fill="#A80036" points="722.976,377,713.976,373,717.976,377,713.976,381,722.976,377" style="stroke: #A80036; stroke-width: 1.0;"/><!--link MatchService to Match--><path d="M835.066,377 C859.36,377 887.201,377 908.657,377 " fill="none" id="MatchService-Match" style="stroke: #A80036; stroke-width: 1.0;"/><polygon fill="#A80036" points="913.688,377,904.688,373,908.688,377,904.688,381,913.688,377" style="stroke: #A80036; stroke-width: 1.0;"/><!--link internet to server--><path d="M521.25,371.2925 C540.086,372.4837 562.855,373.9237 580.811,375.0592 " fill="none" id="internet-server" style="stroke: #A80036; stroke-width: 1.0;"/><ellipse cx="551.3605" cy="373.1967" fill="#FFFFFF" rx="6" ry="6" style="stroke: #A80036; stroke-width: 1.5;"/><!--link Match to Multiplayer--><path d="M989.121,377 C1004.001,377 1020.72,377 1035.79,377 " fill="none" id="Match-Multiplayer" style="stroke: #A80036; stroke-width: 1.0;"/><polygon fill="#A80036" points="976.072,377,982.072,381,988.072,377,982.072,373,976.072,377" style="stroke: #A80036; stroke-width: 1.0;"/><text fill="#000000" font-family="sans-serif" font-size="13" lengthAdjust="spacingAndGlyphs" textLength="8" x="984.1824" y="390.7823">1</text><text fill="#000000" font-family="sans-serif" font-size="13" lengthAdjust="spacingAndGlyphs" textLength="8" x="1020.025" y="390.2028">1</text><!--link RemoteClient to models--><path d="M385.849,321.959 C477.935,308.819 658.404,283.066 738.308,271.664 " fill="none" id="RemoteClient-models" style="stroke: #A80036; stroke-width: 1.0;"/><polygon fill="#A80036" points="743.424,270.934,733.9488,268.247,738.4743,271.6411,735.0801,276.1666,743.424,270.934" style="stroke: #A80036; stroke-width: 1.0;"/><!--link server to models--><path d="M640.296,358.9189 C669.452,339.245 716.009,307.83 746.792,287.058 " fill="none" id="server-models" style="stroke: #A80036; stroke-width: 1.0;"/><polygon fill="#A80036" points="751.216,284.073,741.5181,285.7909,747.0712,286.8695,745.9926,292.4226,751.216,284.073" style="stroke: #A80036; stroke-width: 1.0;"/><!--link SinglePlayer.tsx to Tetris--><path d="M135.861,237.274 C154.831,267.71 196.847,328.901 247.5,364 C338.84,427.2923 371.874,448 483,448 C483,448 483,448 946,448 C1028.81,448 1049.59,436.4929 1129,413 C1147.59,407.4986 1167.66,399.5142 1183.98,392.4619 " fill="none" id="SinglePlayer.tsx-Tetris" style="stroke: #A80036; stroke-width: 1.0;"/><polygon fill="#A80036" points="1188.92,390.307,1179.0714,390.2408,1184.3374,392.3069,1182.2713,397.573,1188.92,390.307" style="stroke: #A80036; stroke-width: 1.0;"/><!--link LocalMultiplayer.tsx to Multiplayer--><path d="M180.441,95.008 C250.233,116.043 374.174,148 483,148 C483,148 483,148 780,148 C915.49,148 1028.26,296.47 1067.06,354.3148 " fill="none" id="LocalMultiplayer.tsx-Multiplayer" style="stroke: #A80036; stroke-width: 1.0;"/><polygon fill="#A80036" points="1069.94,358.6471,1068.2961,348.9364,1067.1752,354.4811,1061.6305,353.3601,1069.94,358.6471" style="stroke: #A80036; stroke-width: 1.0;"/><!--link RemoteClient to internet--><path d="M385.786,344.301 C406.15,349.4747 428.588,355.1755 446.771,359.7954 " fill="none" id="RemoteClient-internet" style="stroke: #A80036; stroke-width: 1.0;"/><ellipse cx="417.0964" cy="352.2559" fill="#FFFFFF" rx="6" ry="6" style="stroke: #A80036; stroke-width: 1.5;"/><!--link RemoteMultiplayer.tsx to models--><path d="M207.942,166.043 C221.157,168.791 234.691,171.531 247.5,174 C430.411,209.258 650.017,245.373 738.351,259.645 " fill="none" id="RemoteMultiplayer.tsx-models" style="stroke: #A80036; stroke-width: 1.0;"/><polygon fill="#A80036" points="743.472,260.472,735.2249,255.0882,738.536,259.6748,733.9494,262.9859,743.472,260.472" style="stroke: #A80036; stroke-width: 1.0;"/><!--
@startuml
left to right direction

package "tetris-ws-model" {
  [models]
}

package "tetris-ws-client" {
  [RemoteClient]
}
package "tetris-core" {
  [Multiplayer] "1" *- - "2" [Tetris]
}

package "tetris" {
  [LocalMultiplayer.tsx] - -> [Multiplayer.tsx]
  [RemoteMultiplayer.tsx] - -> [RemoteClient]
  [RemoteMultiplayer.tsx] - -> [Multiplayer.tsx]
  [SinglePlayer.tsx]
}

package "tetris-server" {
  [server] - -> [MatchService]
  [MatchService] - -> [Match]
}

cloud "internet" {
}

internet -0- [server]

[Match] "1" *- - "1" [Multiplayer]
[RemoteClient] - -> [models]
[server] - -> [models]
[SinglePlayer.tsx] - -> [Tetris]
[LocalMultiplayer.tsx] - -> [Multiplayer]
[RemoteClient] -0- internet
[RemoteMultiplayer.tsx] - -> [models]
@enduml

PlantUML version 1.2019.01(Sat Feb 09 15:32:04 UTC 2019)
(GPL source distribution)
Java Runtime: Java(TM) SE Runtime Environment
JVM: Java HotSpot(TM) 64-Bit Server VM
Java Version: 1.7.0_25-b15
Operating System: Linux
Default Encoding: UTF-8
Language: en
Country: US
--></g></svg>